<?xml version="1.0" encoding="utf-8"?>
<!-- Generator: Adobe Illustrator 25.0.1, SVG Export Plug-In . SVG Version: 6.00 Build 0)  -->
<svg version="1.1" id="Layer_1" xmlns="http://www.w3.org/2000/svg" xmlns:xlink="http://www.w3.org/1999/xlink" x="0px" y="0px"
	 viewBox="0 0 999.9 1000.7" style="enable-background:new 0 0 999.9 1000.7;" xml:space="preserve">
<style type="text/css">
	.st0{fill:#E71D36;}
</style>
<g>
	<g>
		<path class="st0" d="M520.8,42.5c8.7,0,17.5,0.6,26.2,2c4,0.6,7.7,1.8,11.3,3.8c3,1.7,6.2,3.1,9.9,3.2c2.4,0.1,4.3,1.6,6.1,3.2
			c2.7,2.4,5.4,5.1,9.4,5.1c0.3,0,0.7,0,1.1-0.1c0.1,0,0.2,0,0.4,0c0.4,0,0.9,0.1,1.1,0.3c3.9,6.6,14.7,7.2,14.7,17.5
			c0,3.3,2.5,6.8,4.2,10c4.2,8.3,3.9,17.5,4.1,26.2c0.2,6.5-0.9,13.1-1.2,19.7c-0.4,7.1-4,13.1-5.5,19.9c-0.4,1.9-1.5,3.9-0.9,5.8
			c3.6,11.1-0.2,21.7-2.3,32.4c-0.8,4-2.5,7.9-3.1,12.1c-0.6,3.9-3.1,6.5-6.8,6.5c-0.6,0-1.1-0.1-1.7-0.2c-0.6-0.1-1.2-0.2-1.7-0.2
			c-2.4,0-3,1.5-3.4,4c-1.4,10.8-8.3,20-8.7,31.1c-0.1,3.7-0.6,7.3-1.1,10.9c-1,8.8,0.5,12,8.6,15.6c5.6,2.5,11.8,4.1,16.9,7.1
			c12.1,7.1,26.7,7.2,38.3,15.1c0.8,0.6,2,1.1,2.9,1.1c0.1,0,0.2,0,0.3,0c1.2-0.2,2.4-0.2,3.6-0.2c6.2,0,11.8,2.1,17.5,4.6
			c2.2,1,4.4,1.7,5.3,4.1c1.1,2.8,3.1,4.8,5.5,6.3c18.2,11.7,26.6,29.4,29.6,50c2,14.2,5.5,28.1,6.4,42.5c0.3,4.8,2.7,9.6,4.2,14.3
			c4.3,13.6,0.5,25.6-7.7,36.6c-1.8,2.4-2.6,4.8-2.7,7.8c-0.3,12.3-3.4,24-7.5,35.5c-5.7,16-13.1,31.3-17.7,47.7
			c-2.3,8.4-4.9,16.5-9.6,24c-3.7,5.9-8.5,10.2-14.9,12.7c-2.4,1-2.9,2.2-2.7,4.9c1.8,22.5,6.3,44.9,5.3,67.5
			c-0.6,13.4-0.1,26.5,2.8,39.6c0.3,1.1,0.3,2.3,0.2,3.5c-0.2,7.2-0.2,14.2,1.8,21.3c1.7,5.9,1.8,12,1.2,18.2
			c-0.5,4.8,0.6,10.2,2.6,15c2.8,6.7,5.2,13.4,0.8,20.5c-1.2,2-0.6,4.6-0.1,6.9c2.6,12.6,3.2,25.4,2.6,38.3
			c-0.9,18.3,2.5,36.1,6.4,53.8c2.5,11.3,4,22.9,6.6,34.2c3.6,15.1,4,30.3,2,45.6c-0.8,6.1-4.8,10.9-9.1,15.1
			c-2.6,2.6-5.4,5.1-8.5,7c-5.3,3.3-5.9,8-5,13.4c0.9,5.2,1.6,10.5,2.5,15.8c-39,0-78,0-117,0c-0.6-5.3-3.9-9.2-7.4-12.7
			c-12.9-12.9-19.9-29.1-24.8-46c-4.6-16-10.6-31.9-9.7-49.1c0.1-1.8-0.4-3-1.9-3c-0.6,0-1.5,0.2-2.5,0.7c-5.6,2.6-8.5,5.9-7.5,12.2
			c0.2,1.1-0.4,2.3-0.6,3.4c-1.6,9.1-6.4,17.1-8.9,25.9c-2.9,10.3-4.8,21.2-13,29.2c-1.1,1-1.2,2.7-1.4,4.2
			c-1.1,11.7-2.2,23.5-3.3,35.2c-35,0-70,0-105,0c1.3-11.9,2.7-23.8,4.2-35.7c0.9-6.7,0.1-13-7.3-17.4c-12.7-7.6-22.5-18.8-32-29.9
			c-5.5-6.5-7.9-15.2-7.2-23.9c1-13,3.4-25.5,11.5-36.5c4.7-6.3,5.4-14.6,7.9-22c5.1-14.4,5-29.7,7.1-44.6
			c1.7-12.4,2.1-24.8,3.1-37.2c0.6-6.9-2.3-13.7,0-20.7c1.7-5,1.9-10.3,0.6-15.6c-0.5-2,0.2-4.2,1.7-5.6c3.2-3,3.6-6.6,3.1-10.6
			c-0.4-3.6,0.5-6.9,1.1-10.4c2.9-16.9,3.6-34.1,5.8-51c1.4-11.1,3.4-22,4.8-33.1c1-7.7-1.5-15.2-2.1-22.8
			c-0.9-10.7-1.2-21.3,0.1-31.9c0.6-5-0.6-7.6-5.9-9.3c-12.9-4.1-25.8-8.1-38.8-11.7c-8.9-2.5-14.4-7.9-16.9-16.6
			c-2.7-9.4-7.2-18.3-9.1-28c-2.8-14.3-1.3-28.5-0.6-42.8c0.7-12.8,3-25.1,8.9-36.6c1.2-2.3,0.1-4.1-1.1-6c-5.8-9-5.7-9.9,0.9-18.4
			c6.4-8.2,12.1-17,15.9-26.5c3.6-9,6.5-18.5,8.1-28.2c4.4-26.6,28.2-47.1,55-47.1c0,0,0.1,0,0.1,0c0,0,0.1,0,0.1,0
			c1.9,0,3.3-0.1,4.1-2.4c1-2.8,3-4,5.3-4c0.9,0,1.9,0.2,2.9,0.7c3.7,1.6,7.4,2.3,11,2.3c4.4,0,8.8-1,13.3-2.7
			c1.7-0.6,3.6-0.5,5.4-0.6c5.6-0.4,11.3-0.4,16.1-4.2c1.3-1.1,3.1-1.4,4.8-1.4c0.1,0,0.3,0,0.4,0c0.2,0,0.3,0,0.5,0
			c7,0,12.5-4.3,18.8-6.3c2-0.6,1.9-2.5,1.9-4.2c0-8.8,0.1-17.7,0-26.5c0-1.3-0.2-2.7-0.7-3.9c-2.5-6.1-3.9-12.4-4.7-18.9
			c-0.2-2.1-0.5-4.4-3.4-4.4c-0.2,0-0.4,0-0.6,0c-0.1,0-0.2,0-0.3,0c-1.9,0-3-1.8-3.1-3.6c-0.3-6.5-2.8-12.3-4.7-18.3
			c-2.2-6.9-3-14-2.4-21.2c0.4-3.9,0.3-7.8-1.2-11.3c-4.5-10.7-2.8-21.9-3.1-32.9c-0.1-5-0.8-10.3,0.6-14.9
			c3.7-12.3,4.9-26.1,17-34.3c2.4-1.7,3.4-4.5,5.5-6.4c6-5.4,13.2-8.8,20.4-12.2c7.4-3.5,15.5-5.6,23.5-6.3
			C510,42.7,515.4,42.5,520.8,42.5 M520.8,40.5c-5.4,0-10.9,0.2-16.3,0.7c-8.4,0.7-16.8,3-24.2,6.5c-6.8,3.2-14.5,6.8-20.8,12.5
			c-1.1,1-1.9,2.1-2.7,3.2c-0.8,1.2-1.6,2.3-2.6,3c-10.5,7.1-13.3,18-15.9,28.5c-0.6,2.3-1.2,4.6-1.8,6.8c-1.2,4-1,8.4-0.8,12.6
			c0,1,0.1,2,0.1,3c0.1,2.7,0,5.5,0,8.1c-0.1,8.4-0.3,17.1,3.2,25.5c1.4,3.5,1.3,7.4,1,10.4c-0.7,7.3,0.2,14.7,2.5,22
			c0.4,1.3,0.9,2.7,1.3,4c1.6,4.7,3.1,9.1,3.3,13.9c0.1,3.2,2.3,5.5,5.1,5.5c0.2,0,0.3,0,0.5,0c0.2,0,0.3,0,0.4,0
			c0.9,0,1.2,0,1.5,2.6c0.8,7.1,2.3,13.4,4.8,19.4c0.3,0.8,0.5,1.9,0.5,3.2c0,9.3,0,18.6,0,26.5l0,0.2c0,1.9-0.2,2-0.5,2.1
			c-2.4,0.7-4.6,1.8-6.8,2.8c-3.8,1.8-7.4,3.4-11.4,3.4c-0.1,0-0.3,0-0.4,0c-0.2,0-0.3,0-0.5,0c-2.5,0-4.6,0.6-6.1,1.8
			c-3.9,3.1-8.5,3.4-13.5,3.7c-0.5,0-1,0.1-1.5,0.1c-0.4,0-0.9,0-1.3,0.1c-1.5,0-3.1,0.1-4.6,0.7c-4.7,1.7-8.8,2.5-12.6,2.5
			c-3.6,0-6.9-0.7-10.2-2.2c-1.2-0.6-2.5-0.8-3.7-0.8c-3.3,0-6,2-7.2,5.4c-0.3,0.9-0.4,1-2.2,1l-0.1,0H377c-13.4,0-26.7,5-37.2,14
			c-10.5,9-17.6,21.4-19.8,34.7c-1.5,8.9-4.1,18.2-8,27.8c-3.3,8.2-8.4,16.7-15.6,26c-7.2,9.3-7.3,11.1-1,20.7c1.3,2,1.6,2.8,1,4
			c-5.5,10.6-8.4,22.5-9.1,37.4c-0.1,2.1-0.2,4.3-0.4,6.4c-0.7,12-1.4,24.5,1,36.9c1.1,5.9,3.2,11.5,5.3,16.9
			c1.4,3.7,2.8,7.5,3.9,11.3c2.7,9.5,8.7,15.3,18.3,18c14,3.9,27.4,8,38.7,11.6c4.5,1.4,5.1,3.1,4.6,7.1
			c-1.5,11.9-0.8,23.5-0.1,32.3c0.2,2.7,0.7,5.4,1.1,8c0.8,5,1.6,9.6,1,14.4c-0.7,5.4-1.5,10.8-2.4,16.1c-0.9,5.6-1.7,11.3-2.5,17
			c-0.9,6.9-1.6,13.9-2.2,20.7c-0.9,10-1.9,20.3-3.6,30.3c-0.1,0.7-0.2,1.4-0.4,2c-0.6,2.8-1.1,5.8-0.8,8.9c0.5,4.2-0.2,6.8-2.5,8.9
			c-2,1.9-2.9,4.8-2.2,7.5c1.2,4.9,1,9.7-0.6,14.5c-1.5,4.6-1,9-0.5,13.3c0.3,2.7,0.6,5.3,0.4,7.8c-0.3,4-0.6,8-0.8,11.8
			c-0.5,8.3-1.1,16.8-2.2,25.3c-0.6,4.4-1.1,9-1.5,13.3c-1,10.3-2,20.9-5.5,30.9c-0.9,2.5-1.5,5-2.1,7.5c-1.3,5.1-2.6,10-5.5,14
			c-8.9,12-11,25.7-11.9,37.5c-0.7,9.5,2.1,18.7,7.7,25.3c9.9,11.7,19.8,22.8,32.5,30.4c6.4,3.8,7.1,8.9,6.3,15.4
			c-1.4,11.3-3,23.5-4.3,35.7c-0.1,0.6,0.1,1.1,0.5,1.5c0.4,0.4,0.9,0.7,1.5,0.7h105c1,0,1.9-0.8,2-1.8l0.8-8.3
			c0.8-8.8,1.7-17.9,2.5-26.9c0.1-1.3,0.3-2.4,0.8-2.9c7.5-7.3,10-16.7,12.4-25.9c0.4-1.4,0.8-2.9,1.1-4.3c1-3.6,2.5-7.2,3.9-10.6
			c2-4.9,4.1-10,5-15.5c0-0.3,0.1-0.6,0.2-1c0.2-0.9,0.5-2,0.3-3.1c-0.8-4.8,1-7.5,6.4-10c0.8-0.4,1.3-0.5,1.6-0.5
			c0,0.2,0.1,0.5,0,0.9c-0.8,14.8,3.4,28.7,7.5,42.2c0.8,2.5,1.5,5.1,2.3,7.6c6.1,21.1,13.9,35.5,25.3,46.9
			c3.7,3.7,6.3,7.1,6.8,11.5c0.1,1,1,1.8,2,1.8h117c0.6,0,1.1-0.3,1.5-0.7c0.4-0.4,0.5-1,0.5-1.6c-0.2-1.6-0.5-3.2-0.7-4.8
			c-0.5-3.6-1.1-7.3-1.7-11c-1-5.8,0.2-9,4.1-11.4c3.5-2.2,6.6-5,8.8-7.3c4.3-4.3,8.8-9.5,9.7-16.3c2.1-16.3,1.5-31.5-2-46.3
			c-1.4-6-2.5-12.3-3.6-18.3c-0.9-5.2-1.9-10.6-3-15.8c-3.9-17.8-7.3-35.2-6.4-53.3c0.7-14.1-0.1-26.8-2.6-38.8l-0.1-0.5
			c-0.4-1.8-0.8-3.7-0.1-4.9c5.2-8.4,1.8-16.4-0.7-22.3c-2-4.8-2.9-9.7-2.4-14c0.7-7.4,0.3-13.5-1.2-19c-2-7.1-2-14.4-1.7-20.7
			c0-1.3,0-2.7-0.3-4c-2.6-11.4-3.5-23.4-2.8-39.1c0.6-15.4-1.2-30.8-3-45.7c-0.9-7.2-1.8-14.7-2.3-22.1c-0.2-2.1,0.1-2.3,1.5-2.9
			c6.6-2.7,11.8-7.1,15.8-13.5c4.9-7.9,7.6-16.4,9.8-24.5c2.8-10.1,6.8-20,10.7-29.6c2.4-5.8,4.8-11.9,6.9-17.9
			c4.9-13.8,7.4-25.3,7.6-36.1c0.1-2.6,0.8-4.5,2.3-6.6c9.5-12.7,12.1-25.3,8-38.4c-0.5-1.5-1-2.9-1.5-4.3c-1.2-3.3-2.4-6.4-2.6-9.5
			c-0.6-9.3-2.3-18.6-3.9-27.5c-0.9-4.9-1.8-10-2.5-15.1c-3.4-23.5-13.3-40.3-30.5-51.4c-2.4-1.6-3.9-3.3-4.7-5.3
			c-1.1-2.9-3.6-4-5.7-4.9c-0.2-0.1-0.5-0.2-0.7-0.3c-6.5-2.9-12.1-4.8-18.3-4.8c-1.3,0-2.6,0.1-3.8,0.3c0,0,0,0,0,0
			c-0.3,0-1-0.2-1.9-0.8c-6.4-4.3-13.6-6.4-20.6-8.4c-6.1-1.7-12.3-3.5-17.8-6.8c-3.2-1.9-6.9-3.2-10.4-4.5
			c-2.2-0.8-4.6-1.7-6.7-2.6c-7.1-3.2-8.4-5.5-7.4-13.6l0.2-1.7c0.4-3.1,0.8-6.3,0.9-9.4c0.2-5.7,2.2-10.9,4.4-16.4
			c1.8-4.6,3.7-9.4,4.4-14.6c0.3-2.3,0.6-2.3,1.4-2.3c0.4,0,0.8,0.1,1.3,0.2c0.7,0.1,1.4,0.2,2.1,0.2c4.6,0,8-3.2,8.8-8.2
			c0.3-2.2,0.9-4.2,1.6-6.4c0.5-1.8,1.1-3.7,1.5-5.6c0.4-1.9,0.8-3.9,1.2-5.7c2-8.9,4.1-18,1-27.7c-0.3-0.8,0.1-1.8,0.4-3
			c0.2-0.6,0.4-1.2,0.5-1.8c0.6-2.5,1.4-5,2.4-7.6c1.4-4,2.9-8.1,3.1-12.6c0.1-2.4,0.3-4.9,0.6-7.3c0.4-4.1,0.7-8.4,0.6-12.6
			c0-1,0-2-0.1-3c-0.1-8-0.3-16.3-4.2-24c-0.4-0.8-0.8-1.6-1.3-2.3c-1.3-2.3-2.7-4.7-2.7-6.8c0-7.4-4.8-10.5-9-13.3
			c-2.4-1.6-4.7-3.1-5.9-5.2c-0.3-0.6-1.1-1.3-2.8-1.3c-0.2,0-0.4,0-0.6,0c-0.3,0-0.6,0-0.8,0c-3,0-5.2-2-7.6-4.2l-0.4-0.4
			c-2-1.8-4.3-3.6-7.3-3.7c-3.4-0.1-6.3-1.5-9-3c-3.6-2-7.5-3.3-12-4C538.6,41.1,529.7,40.5,520.8,40.5L520.8,40.5z"/>
	</g>
</g>
</svg>
