<?xml version="1.0" encoding="utf-8"?>
<!-- Generator: Adobe Illustrator 25.0.1, SVG Export Plug-In . SVG Version: 6.00 Build 0)  -->
<svg version="1.1" id="Layer_1" xmlns="http://www.w3.org/2000/svg" xmlns:xlink="http://www.w3.org/1999/xlink" x="0px" y="0px"
	 viewBox="0 0 1049.9 1399.3" style="enable-background:new 0 0 1049.9 1399.3;" xml:space="preserve">
<style type="text/css">
	.st0{fill:#E71D36;}
</style>
<g>
	<g>
		<path class="st0" d="M149.7,146.4c8.3,0,16.4,1.4,24.5,4.3c6.4,2.3,11.6,6.2,16.1,10.6c6.2,6.1,13.2,11.8,17.1,19.9
			c0.7,1.5,1.8,2.9,1.5,4.7c-1.8,9.2,2.7,16.2,8.7,22.1c4.7,4.7,5.8,9.7,3.4,15.4c-2.3,5.3-2.2,9.7,1.6,14.3
			c4.5,5.5,5.7,12.4,5.5,19.3c-0.1,8.7,0.8,17.2,3.5,25.6c2.2,6.7,1.3,13.9,2.6,20.8c0.8,4.3,2.5,5.7,6.3,5.7c0.3,0,0.6,0,1,0
			c12.2-0.7,23.5-3.2,34.1-9.8c4.6-2.9,9.7-3.9,14.9-3.9c3.5,0,7,0.5,10.4,1.1c22.8,4.5,45.2,10.7,66.3,20.1
			c11.7,5.2,23,9.1,35.8,10.3c19.8,1.8,39.5,6,59.5,6c0.7,0,1.3,0,2,0c6.6-0.1,13.3-0.1,19.9-0.8c3.1-0.3,6.1-0.5,9.2-0.5
			c16.8,0,32.8,4.5,48.5,9.9c24.6,8.4,49.8,14.4,74.7,21.7c7.9,2.3,16.3,1.2,23.7,4.8c2.2,1.1,4.4,1.8,6.5,1.8
			c1.8,0,3.6-0.5,5.6-1.5c1.5-0.8,3.1-1,4.8-1c1.4,0,2.8,0.1,4.1,0.1c0.1,0,0.3,0,0.4,0c12.6-0.3,25.2-0.3,37.6-3.1
			c1-0.2,2.1-0.3,3.2-0.3c1.4,0,2.9,0.2,4.2,0.6c1.3,0.4,2.5,0.6,3.7,0.6c2.9,0,5.5-1.2,7.9-3.1c1.5-1.2,2.9-1.6,4.3-1.6
			c1.6,0,3.1,0.5,4.6,1.1c3.2,1.2,2.9,4.5,2.3,6.9c-1.2,4.9,1.6,6,5.2,6.3c6.4,0.6,12.3,2.3,17.8,5.7c3.5,2.2,8.1,1.3,11.9,3.2
			c2.8,1.4,5.1,3.8,8.1,4.7c0.3,0.1,0.7,0.5,0.7,0.6c-1,7.1,6.6,11.7,5.5,18.9c-0.5,3.3-2.1,6.1-5.1,6.7c-5.2,1.1-10.1,3.7-15.6,3.7
			c-0.8,0-1.5-0.1-2.3-0.2c-4.1-0.6-8.3-0.3-12.4-0.6c-0.2,0-0.4,0-0.6,0c-2.2,0-3.4,1.2-3.8,3.2c-0.7,3.2-2.5,4.5-5.2,4.5
			c-0.4,0-0.9,0-1.4-0.1c-11.4-1.6-23-1.9-34.3-4.9c-1.8-0.5-3.7-0.6-5.6-0.6c-2.4,0-4.8,0.2-7.2,0.2c-2.3,0-4.6-0.2-6.9-1
			c10.7,4.4,19.4,12.4,30.7,15.5c3.4,0.9,6.4,3.5,9.4,5.6c9.3,6.3,19.4,10.8,29.8,14.9c11.2,4.4,21,11.2,31,17.7
			c11.5,7.4,22.3,15.7,33.4,23.5c11.3,7.9,22,16.7,33.1,24.8c18.8,13.8,37.5,27.7,59.8,36.2c10,3.8,19.6,7.4,30.4,8.7
			c7.4,0.9,14.5,4.4,20.4,9.7c5.4,4.8,12.7,5.6,19.2,7.8c9.9,3.3,18,9,25.6,15.7c3.1,2.7,6.4,5.3,7.5,9.7c0.4,1.8,2.3,3,3.9,3.7
			c5,2.1,8.5,6.6,13.8,8.3c3.8,1.2,6.8,7.8,5.2,11.2c-3.7,7.5-6.8,15.6-14.2,20.7c-3.9,2.7-8,3.9-12.6,3.9c-1,0-1.9-0.1-3-0.2
			c-1.3-0.1-2.6-0.2-3.9-0.2c-2.4,0-4.9,0.2-7.3,0.2c-3.2,0-6.4-0.3-9.5-1.5c-4.6-1.9-9.4-1.5-14.1-2.2c-7.2-1-13.5-4.4-20-7.1
			c-12.2-5-24.7-8.6-37.7-11.1c-5.5-1.1-10.8-2-16.1-2c-4.2,0-8.5,0.6-12.7,2.3c-0.9,0.4-2,0.4-2.9,0.7c-4.3,1.2-7.7,1.8-10.4,1.8
			c-7.7,0-10.4-5.1-14.9-17.5c-1.8-5.1-2.3-10.7-3.1-16.1c-1.2-8-5.6-11.9-11.8-12.1c-15.9-0.4-29-8.1-42.5-14.9
			c-10.4-5.3-21-9.1-32.6-10.1c-6.2-0.5-11.7-3.9-17.4-5.9c-11.6-4.2-23.7-7-34.3-13.7c-2.4-1.5-4.8-3-7.2-4.5
			c-1.4-0.9-2.8-2.6-4.2-2.6c-12-0.2-15.3-11.6-22.7-17.5c-1.3-1-2.3-1.6-3.4-1.6c-0.9,0-1.7,0.4-2.6,1.2
			c-8.3,7.6-18.7,11.9-27.7,18.5c-2.3,1.7-4.4,3.4-6.2,5.7c-8.6,11-17.3,22-26,32.9c-3.4,4.3-7.2,8.3-11.7,11.5
			c-9.8,6.9-17.4,16-25.5,24.6c-1.4,1.5-2.4,3.2-3,5.1c-3.4,10.8-10.2,19.4-17.1,27.9c-8.2,10-19.6,12.4-31.6,13.6
			c-18.6,1.9-27.8,17.6-22.1,34c4.8,13.8,11.2,27,16.3,40.7c1.4,3.7,1.5,7.5,1.9,11.3c0.5,3.8-2.1,6.1-4.9,8.2
			c-7.2,5.3-15.5,8.4-23.6,11.9c-3.4,1.5-5.1,3.3-5.7,7.2c-2.5,15.5-3,31.2-5.3,46.6c-2.3,15.5-6.1,30.7-9.7,45.9
			c-5.1,21.4-13.8,41.8-18.6,63.2c-2.6,11.5-3.9,23.3-6.7,34.8c-1.1,4.5,1.9,8,4.1,11.5c19.3,30.9,27.6,64.3,23.9,100.6
			c-0.9,9.2,0.1,18.4,1.2,27.4c3.4,26.7,8.1,53.2,13.5,79.5c2.9,14,7.3,27.7,12.6,40.9c1.5,3.7,2.5,7.6,3.3,11.4
			c1.6,7.1-0.9,13.2-6.8,18.2c-8.1,6.9-18.3,10.2-26.5,16.9c-6.4,5.3-13.9,9.1-21,13.4c-14.6,8.9-28.6,18.9-42.9,28.3
			c-5.7,3.8-12,6.4-18.7,8c-0.5,0.1-1.1,0.2-1.6,0.2c-0.3,0-0.6,0-0.8-0.1c-6-1.7-11.9-3.5-18.3-4.1c-3.3-0.3-7-5.9-8.9-10.6
			c-2.7-7,0-12.7,3-18.8c1.9-3.8,2-8.3,5.5-11.4c1.8-1.6,3.7-3.1,6-3.1c0.4,0,0.7,0,1.1,0.1c0.6,0.1,1.2,0.2,1.7,0.2
			c2.3,0,4.2-1.1,6.1-2.4c5.7-3.9,12.3-6.6,17.1-11.9c2.2-2.5,4.9-4.7,6.3-7.7c3.9-8.7,10.6-15.3,17.2-21.9
			c6.8-6.8,9.1-14.9,9.2-24.4c0.1-12-4.1-22.7-7.8-33.7c-3.6-10.9-8.4-21.3-11.8-32.2c-2.1-6.7-6.2-12.4-9.2-18.7
			c-4.5-9.5-7.9-19.3-10.6-29.5c-2-7.4-4.5-14.6-6.6-22c-3.5-12.4-6.4-24.9-8.2-37.8c-1.5-10.4-2.7-20.8-6.5-30.7
			c-6.4-16.7-13-33.2-16.3-50.9c-1.6-8.3-0.3-16.6-1.6-24.9c-0.3-1.8-0.2-3.6-0.9-5.3c-4.6-11.2-5.6-23.2-7.8-35
			c-1.9-10.1-5.4-19.9-5.6-30.4c-0.1-10.3-0.7-20.6-1.1-30.9c0-0.3,0.1-0.7-0.1-1c-3.7-5.7-3.8-11.8-2.6-18.4c0.3-1.7,0.2-3.5,1-5.4
			c2.9-6.9,6.5-13.6,3.8-21.8c-1.4-4.1,0.8-9-1.6-13.2c-0.2-0.3-0.1-1.1,0.2-1.4c4.3-6.1-0.1-11.3-1.3-16.9
			c-1.7-7.5-6.2-14.1-5.7-22.3c0.5-8.7-2.5-12-10.8-14.7c-2.5-0.8-5.1-1.4-7.6-2.3c-6-2.2-7-5.4-3.6-10.7c3-4.7,2.5-6.7-3-8.3
			c-5.3-1.6-7.8-4.2-6-9.8c0.8-2.5-0.6-4.1-2.2-5.7c-16.6-16.6-32.9-33.4-52.6-46.7c-11.7-7.9-22.4-17.3-33.6-26
			c-1.7-1.3-2.6-3-3.8-4.6c-8-10.5-18.7-17.3-29.7-24c-19.2-11.7-37.6-24.6-54.8-39.3c-1.3-1.1-2.2-1.6-2.9-1.6
			c-1.1,0-1.6,1.2-2.2,3.4c-2.6,10.3-8.1,19.2-13.2,28.4c-4.4,7.9-8.3,15.9-13.8,23c-5.3,6.8-9.4,9.8-15.4,9.8
			c-2.5,0-5.4-0.5-8.8-1.5c-4.6-1.4-9.2-3.1-13.7-4.8c-8-3.1-13.7-8.6-17.6-16.2c-2.3-4.4-4.7-8.8-7.3-13.1
			c-8.8-14.1-7.9-28-0.1-42.1c4.7-8.4,8.6-17.2,14.7-24.8c1.6-2,1.8-4.2,1.4-6.6c-0.4-2.3-0.7-4.6-1.2-6.9
			c-3.3-15.2,2.2-28.9,7.6-42.5c2-5.2,5.9-9.5,11.1-11.8c11.2-5,19.7-14.1,31-19c5.2-2.3,7.4-7.8,7.3-14.2
			c-0.1-6.9-2.9-12.2-6.5-17.7c-4.4-6.6-6.7-14.4-11.3-21c-2.7-3.9-2-8.8,1-13.6c5.3-8.4,13.4-14.3,18.9-22.4
			c2.4-3.5,6.8-4,10.3-5.8c5.3-2.6,5.4-3.7,3.5-9.3c-2.7-7.9-8.5-13.4-13.5-19.5c-5.8-7.1-10.8-14.5-9.4-24.4c0.1-0.6,0-1.4-0.3-2
			c-6.6-13-6.5-27.8-10.8-41.5c-0.6-2-0.7-4.3-0.7-6.4c-0.2-5.9,0.6-11.9-1.7-17.7c-1.3-3.4,0.3-6.8,2.6-9.3
			c14.9-16,31.9-28.3,54.3-32.2C140,146.9,144.9,146.4,149.7,146.4 M412.5,497.3c4,0,7.9-0.3,11.7-1.7c4.2-1.6,8.4-2.4,12.6-2.4
			c4.1,0,8.1,0.8,12.2,2.3c3.2,1.2,6.4,1.7,9.5,1.7c7.6,0,15-2.9,22.4-5.2c0.7-0.2,1.5-0.9,1.9-1.5c3.4-5.7,9-9.2,13.6-13.6
			c18.5-17.9,40.7-29.9,63.6-40.9c13.3-6.4,27.7-10.5,41-17.2c7.5-3.8,15.7-6,24.2-6c1.4,0,2.9,0.1,4.3,0.2c0.9,0.1,1.9,0.2,2.9,0.2
			c1.9,0,3.8-0.3,5.8-1.2c-1.7-0.7-3.3-0.9-5-0.9c-2.7,0-5.3,0.6-7.9,0.6c-1,0-1.9-0.1-2.9-0.3c-4.7-1.1-9.3-1.5-14-1.5
			c-5.8,0-11.5,0.6-17.2,1c-12.2,1-24.3,2.5-36.5,2.5c-2.1,0-4.2,0-6.3-0.1c-11-0.5-21.7-2.8-32.5-4.4c-14-2.1-27.9-4.6-41.6-8.2
			c-9.8-2.6-19.6-3.1-29.4-3.8c-1.2-0.1-2.5-0.1-3.8-0.1c-5.6,0-11.2,0.7-16.7,0.7c-3.1,0-6.3-0.2-9.4-1c-2.8-0.7-5.6-1-8.3-1
			c-5.5,0-10.8,1.1-16.2,2.5c-5.4,1.3-10.7,2-16.1,2c-6.7,0-13.3-1-19.9-3.1c-5.2-1.7-10.3-3.9-15.4-5.9c-2.2-0.9-3.5-1.4-4.3-1.4
			c-1.3,0-1.4,1.4-1.7,5c-0.7,7.9,1.9,14.8,4.9,22c8.3,20.2,16.3,40.4,29.2,58.4c5.6,7.8,12.5,12.7,21.7,14.3
			c4.9,0.8,9.3,2.5,13.2,5.6c1.7,1.4,3.4,2.7,5.7,2.7C409.4,497.3,410.9,497.3,412.5,497.3 M149.7,144.4c-4.9,0-9.8,0.4-15,1.4
			c-20.2,3.6-37.8,14-55.4,32.8c-3.3,3.5-4.4,7.8-3,11.4c1.6,4.1,1.6,8.2,1.6,12.7c0,1.4,0,2.9,0,4.4l0,0.6c0.1,2.1,0.1,4.3,0.8,6.4
			c1.7,5.3,2.7,10.9,3.7,16.4c1.5,8.5,3.1,17.3,7.2,25.4c0.1,0.2,0.2,0.5,0.1,0.8c-1.6,11,4.3,19.1,9.9,25.9c1,1.2,2.1,2.5,3.1,3.7
			c4.1,4.8,8,9.3,10.1,15.2c1.7,4.9,1.7,4.9-2.4,6.9c-0.9,0.4-1.9,0.8-3,1.2c-2.8,1-6,2.2-8.1,5.2c-2.5,3.7-5.6,6.9-8.8,10.2
			c-3.6,3.7-7.3,7.6-10.2,12.2c-3.6,5.7-4,11.5-0.9,15.8c2.3,3.3,4.1,7,5.8,10.6c1.6,3.5,3.3,7,5.5,10.3c3.7,5.4,6.1,10.3,6.2,16.6
			c0,3.6-0.7,9.9-6.1,12.3c-5.9,2.6-11,6.2-16,9.8c-4.9,3.5-9.6,6.8-15,9.2c-5.5,2.5-9.8,7-12.1,12.9l-0.2,0.5
			c-5.3,13.6-10.9,27.6-7.4,43.2c0.3,1.3,0.5,2.5,0.7,3.9c0.2,1,0.3,2,0.5,3c0.4,2.1,0.1,3.6-1,4.9c-4.7,5.9-8.2,12.6-11.6,19
			c-1.1,2-2.2,4.1-3.3,6.1c-8.7,15.7-8.6,30.1,0.2,44.1c2.2,3.6,4.5,7.6,7.2,12.9c4.3,8.3,10.5,14.1,18.6,17.2
			c4.2,1.6,9,3.4,13.8,4.9c3.7,1.1,6.7,1.6,9.3,1.6c7.3,0,11.9-4.1,16.9-10.6c4.5-5.8,8-12.2,11.3-18.4c0.9-1.6,1.8-3.3,2.7-4.9
			c0.6-1.1,1.2-2.2,1.8-3.3c4.5-8,9.2-16.3,11.5-25.6c0.2-0.9,0.4-1.4,0.5-1.7c0.3,0.2,0.7,0.4,1.3,1c16.1,13.8,34.1,26.7,55,39.5
			c12,7.3,21.7,13.7,29.2,23.5c0.3,0.4,0.6,0.8,0.8,1.2c0.9,1.2,1.9,2.6,3.3,3.8c3.9,3,7.8,6.1,11.5,9.1
			c7.1,5.7,14.5,11.7,22.2,16.9c18.5,12.5,34.4,28.5,49.7,43.9l2.5,2.6c1.6,1.6,2.1,2.4,1.7,3.6c-1,3-0.9,5.4,0.1,7.4
			c1.2,2.2,3.4,3.8,7.2,4.9c2.7,0.8,3.2,1.5,3.3,1.7c0.1,0.2,0.1,1.1-1.5,3.6c-2.1,3.3-2.7,6-1.9,8.3c0.8,2.3,2.9,4,6.5,5.4
			c1.6,0.6,3.2,1,4.8,1.5c1,0.3,2,0.6,3,0.9c7.9,2.5,9.9,5.2,9.4,12.6c-0.4,5.7,1.5,10.6,3.3,15.3c1,2.6,1.9,5,2.5,7.6
			c0.4,1.6,1,3.2,1.5,4.7c1.7,4.4,2.5,7.2,0.1,10.7c-0.6,0.9-0.9,2.5-0.3,3.6c1.1,1.9,1,4.1,0.9,6.5c-0.1,2.1-0.2,4.2,0.5,6.4
			c2.2,6.7-0.3,12.4-2.9,18.4c-0.3,0.7-0.6,1.3-0.9,2c-0.7,1.6-0.8,3-0.9,4.2c-0.1,0.6-0.1,1.1-0.2,1.6c-1,5.4-1.6,12.5,2.6,19.4
			c0,0.1,0,0.3,0,0.4c0.1,3.1,0.2,6.3,0.4,9.4c0.3,7,0.6,14.3,0.7,21.5c0.1,7.3,1.8,14.2,3.4,20.9c0.8,3.2,1.6,6.5,2.2,9.8
			c0.5,2.9,1,5.8,1.5,8.6c1.4,8.9,2.9,18.1,6.5,26.8c0.4,0.9,0.5,1.9,0.6,3.1c0.1,0.6,0.1,1.2,0.2,1.8c0.6,3.8,0.7,7.6,0.7,11.6
			c0,4.3,0.1,8.8,0.9,13.3c3.2,16.7,9.2,32.6,15.1,47.9l1.3,3.3c3.4,9,4.8,18.8,6.1,28.2l0.3,2c1.7,12.1,4.4,24.6,8.2,38
			c0.9,3.3,2,6.6,3,9.7c1.2,4,2.5,8.1,3.6,12.2c3,11.3,6.5,21,10.7,29.8c1.1,2.3,2.4,4.6,3.6,6.8c2.2,3.9,4.2,7.6,5.5,11.7
			c1.9,5.9,4.1,11.6,6.3,17.2c1.9,4.9,3.9,10,5.6,15c0.5,1.4,1,2.8,1.4,4.2c3.3,9.6,6.4,18.7,6.3,28.9c-0.1,10-2.7,17.1-8.6,23
			l-0.7,0.8c-6.3,6.4-12.9,13-16.8,21.7c-0.9,1.9-2.5,3.6-4.2,5.3c-0.6,0.6-1.2,1.2-1.8,1.9c-3.1,3.4-6.9,5.6-10.9,8
			c-1.9,1.1-3.9,2.3-5.9,3.6c-2,1.3-3.3,2.1-5,2.1c-0.4,0-0.8,0-1.3-0.1c-0.5-0.1-1-0.2-1.5-0.2c-3.2,0-5.7,2.2-7.3,3.6
			c-2.7,2.4-3.7,5.5-4.6,8.3c-0.4,1.3-0.8,2.6-1.4,3.7c-2.9,5.8-6.1,12.3-3.1,20.4c1.6,4.2,5.6,11.5,10.5,11.9
			c5.8,0.5,11,2,16.6,3.6l1.3,0.4c0.4,0.1,0.9,0.2,1.4,0.2c0.6,0,1.3-0.1,2.1-0.3c7.2-1.7,13.7-4.5,19.4-8.2
			c4.9-3.2,9.8-6.5,14.6-9.8c9.2-6.2,18.7-12.7,28.3-18.5c1.8-1.1,3.6-2.2,5.4-3.2c5.3-3.1,10.9-6.4,15.8-10.4
			c3.9-3.2,8.1-5.5,12.6-8c4.7-2.6,9.6-5.3,13.8-8.9c6.5-5.6,9.1-12.5,7.4-20.1c-1.1-4.8-2.1-8.5-3.4-11.7
			c-5.7-14.2-9.8-27.5-12.5-40.6c-6-29-10.4-54.9-13.5-79.4c-1.2-9.5-2.1-18.2-1.2-27c3.7-36-4.4-70.2-24.2-101.8
			c-0.3-0.5-0.6-1-1-1.5c-1.8-2.8-3.6-5.4-2.9-8.4c1.5-6.1,2.5-12.4,3.6-18.5c0.9-5.4,1.9-10.9,3.1-16.3c2.5-11,6.1-22,9.5-32.6
			c3.2-9.9,6.6-20.2,9.1-30.5l0.9-3.9c3.3-13.7,6.7-27.9,8.8-42.1c1.1-7.4,1.8-14.9,2.5-22.2c0.7-8,1.5-16.3,2.8-24.4
			c0.5-3,1.5-4.4,4.5-5.6c1.2-0.5,2.5-1.1,3.7-1.6c6.9-2.9,14-5.9,20.2-10.6c2.2-1.6,6.3-4.7,5.7-10c-0.1-0.8-0.2-1.7-0.3-2.5
			c-0.3-3-0.6-6.2-1.8-9.3c-2.3-6.2-4.9-12.4-7.5-18.4c-3.1-7.3-6.2-14.8-8.9-22.3c-2.6-7.5-2-14.9,1.8-20.8
			c3.8-6,10.4-9.7,18.6-10.5c11.2-1.1,23.9-3.2,32.9-14.3c7.6-9.3,14.1-17.8,17.5-28.6c0.5-1.7,1.4-3.2,2.5-4.4
			c1.6-1.7,3.3-3.5,4.8-5.2c6.3-6.7,12.7-13.7,20.4-19.1c4.1-2.9,8-6.7,12.1-11.9c8.8-11.1,17.5-22,26-32.9c1.6-2,3.5-3.6,5.8-5.3
			c3.6-2.7,7.6-5,11.4-7.3c5.6-3.3,11.4-6.7,16.4-11.3c0.5-0.5,0.9-0.7,1.3-0.7c0.5,0,1.2,0.4,2.2,1.2c2.2,1.8,4.1,4.1,6.1,6.6
			c4.1,5.2,8.8,11.2,17.9,11.3c0.3,0,1.1,0.7,1.5,1.1c0.5,0.4,1,0.9,1.6,1.2c1.2,0.8,2.4,1.5,3.6,2.2c1.2,0.7,2.4,1.5,3.6,2.2
			c8.1,5.1,17.1,8,25.8,10.9c2.9,1,5.9,1.9,8.8,3c1.7,0.6,3.5,1.4,5.2,2.1c4,1.7,8.2,3.5,12.8,3.9c10.3,0.9,20.4,4,31.9,9.9
			c1.3,0.7,2.7,1.4,4,2.1c12.1,6.2,24.5,12.7,39.3,13.1c3.8,0.1,8.7,2,9.9,10.4c0.2,1.1,0.3,2.2,0.5,3.3c0.6,4.4,1.2,9,2.8,13.3
			c4.2,11.7,7.3,18.8,16.8,18.8c2.8,0,6.2-0.6,11-1.9c0.3-0.1,0.7-0.1,1-0.2c0.6-0.1,1.4-0.2,2.1-0.5c3.7-1.5,7.6-2.2,12-2.2
			c5,0,10.1,0.9,15.7,2c13.4,2.6,25.6,6.2,37.3,11c1.5,0.6,3,1.3,4.4,1.9c5,2.2,10.2,4.5,16.1,5.3c1.5,0.2,3.1,0.3,4.6,0.4
			c3.2,0.2,6.2,0.5,9.1,1.6c3.6,1.5,7.2,1.7,10.3,1.7c1.2,0,2.5,0,3.7-0.1c1.2,0,2.4-0.1,3.6-0.1c1.4,0,2.6,0.1,3.7,0.2
			c1.1,0.1,2.1,0.2,3.2,0.2c5,0,9.5-1.4,13.7-4.2c6.9-4.7,10.2-11.7,13.5-18.5c0.5-1,0.9-2,1.4-3c1-2,0.9-4.8-0.4-7.7
			c-1.3-3.1-3.6-5.5-6-6.3c-2.6-0.8-4.7-2.4-7-4.1c-2-1.5-4.2-3.1-6.7-4.1c-0.9-0.4-2.5-1.2-2.8-2.3c-1.1-4.7-4.5-7.6-7.4-10.2
			l-0.7-0.6c-9.3-8.1-17.4-13.1-26.3-16.1c-1.7-0.6-3.5-1.1-5.3-1.5c-4.9-1.3-9.6-2.6-13.2-5.9c-6.3-5.7-13.7-9.2-21.4-10.2
			c-10.8-1.4-21-5.2-29.9-8.6c-21.7-8.3-40.5-22.1-58.7-35.4l-0.7-0.5c-4.6-3.4-9.2-6.9-13.6-10.3c-6.3-4.9-12.9-9.9-19.5-14.5
			c-3.8-2.6-7.6-5.4-11.2-8.1c-7.2-5.2-14.6-10.6-22.2-15.5c-1.4-0.9-2.7-1.8-4.1-2.7c-8.6-5.6-17.4-11.4-27.3-15.2
			c-9.1-3.6-19.8-8.1-29.4-14.7c-0.7-0.5-1.3-0.9-2-1.4c-2.5-1.8-5-3.6-8-4.4c-6.2-1.7-11.6-5-17.2-8.4c-1.3-0.8-2.6-1.6-3.9-2.3
			c0.2,0,0.4,0,0.6,0c1.2-0.1,2.4-0.1,3.5-0.1c2.1,0,3.7,0.2,5.1,0.6c7.7,2.1,15.6,2.9,23.3,3.7c3.7,0.4,7.6,0.8,11.3,1.3
			c0.6,0.1,1.1,0.1,1.7,0.1c3.7,0,6.3-2.2,7.2-6.1c0.3-1.3,0.9-1.6,1.8-1.6c0.1,0,0.3,0,0.4,0c1.8,0.2,3.7,0.2,5.4,0.2
			c2.4,0,4.7,0.1,6.9,0.4c0.9,0.1,1.7,0.2,2.6,0.2c3.8,0,7.2-1.1,10.6-2.2c1.9-0.6,3.6-1.2,5.4-1.5c3.6-0.8,6-3.8,6.7-8.4
			c0.7-4.3-1.3-7.8-3-10.8c-1.6-2.8-2.9-5.2-2.5-8.1c0.2-1.5-1.1-2.5-2.1-2.8c-1.6-0.5-2.9-1.4-4.4-2.5c-1.1-0.7-2.1-1.5-3.4-2.1
			c-2.1-1.1-4.3-1.4-6.4-1.7c-2-0.3-3.9-0.5-5.3-1.5c-5.4-3.5-11.6-5.4-18.7-6.1c-1.8-0.2-3-0.5-3.4-1.1c-0.4-0.6-0.3-1.8,0-2.7
			c1.6-6.3-1.5-8.5-3.6-9.3c-1.5-0.6-3.3-1.2-5.3-1.2c-2,0-3.8,0.7-5.6,2c-2.2,1.8-4.4,2.6-6.6,2.6c-1,0-2-0.2-3.1-0.5
			c-1.4-0.5-3.1-0.7-4.8-0.7c-1.3,0-2.5,0.1-3.7,0.4c-11.5,2.5-23.4,2.8-34.9,3l-2.3,0c-0.1,0-0.3,0-0.4,0c-0.6,0-1.3,0-2-0.1
			c-0.7,0-1.4-0.1-2.1-0.1c-1.7,0-3.8,0.1-5.8,1.3c-1.6,0.9-3.1,1.3-4.6,1.3c-1.7,0-3.5-0.5-5.7-1.6c-4.7-2.3-9.6-2.8-14.4-3.3
			c-3.4-0.4-6.6-0.7-9.7-1.6c-8.7-2.6-17.7-5-26.3-7.4c-15.9-4.4-32.4-8.9-48.3-14.3c-15.1-5.2-31.6-10-49.2-10
			c-3.2,0-6.3,0.2-9.4,0.5c-5.9,0.6-11.9,0.7-17.8,0.8l-2,0c-0.7,0-1.3,0-2,0c-12.5,0-25.2-1.7-37.4-3.4c-7.2-1-14.6-2-21.9-2.6
			c-13.8-1.2-25.5-5.8-35.2-10.1c-19.1-8.5-40.9-15.1-66.7-20.2c-4-0.8-7.6-1.2-10.8-1.2c-6.2,0-11.4,1.4-15.9,4.2
			c-9.1,5.7-19.7,8.8-33.1,9.5c-0.3,0-0.6,0-0.9,0c-2.7,0-3.7-0.6-4.3-4.1c-0.5-2.7-0.6-5.4-0.8-8.3c-0.2-4.2-0.5-8.5-1.9-12.7
			c-2.5-7.4-3.6-15.6-3.4-24.9c0.1-8.9-1.8-15.4-6-20.6c-3.1-3.8-3.5-7.3-1.3-12.2c2.8-6.4,1.5-12.3-3.8-17.6
			c-7-6.9-9.5-13.2-8.2-20.3c0.4-2-0.5-3.7-1.2-5c-0.2-0.3-0.3-0.6-0.4-0.9c-3.3-7-8.7-12.1-14-17.1c-1.2-1.1-2.4-2.3-3.6-3.4
			c-5.4-5.4-10.9-9-16.8-11.1C166.6,145.9,158.3,144.4,149.7,144.4L149.7,144.4z M412.5,495.3c-1.2,0-2.5,0-3.7-0.1l-0.9,0
			c-1.6,0-2.9-0.9-4.5-2.3c-3.8-3-8.4-5-14.1-6c-8.4-1.5-14.9-5.7-20.5-13.5c-12.1-16.8-20-36.2-27.6-54.8l-1.3-3.1
			c-3.1-7.5-5.4-13.8-4.8-21.1l0-0.6c0.1-0.9,0.2-1.9,0.3-2.5c0.7,0.2,1.8,0.7,2.9,1.1l0.1,0c1.1,0.4,2.2,0.9,3.2,1.3
			c4,1.6,8.1,3.3,12.3,4.7c6.7,2.1,13.6,3.2,20.5,3.2c5.5,0,11-0.7,16.6-2c5-1.2,10.3-2.4,15.7-2.4c2.7,0,5.3,0.3,7.9,0.9
			c2.9,0.7,6.1,1,9.8,1c2.8,0,5.7-0.2,8.5-0.4c2.7-0.2,5.5-0.4,8.3-0.4c1.3,0,2.5,0,3.6,0.1c1,0.1,2,0.1,3,0.2
			c9,0.6,17.5,1.2,26.1,3.6c14.4,3.9,29.2,6.4,41.8,8.3c2.8,0.4,5.7,0.9,8.4,1.4c7.9,1.3,16.1,2.7,24.3,3.1c2,0.1,4.2,0.1,6.4,0.1
			c9,0,18.1-0.8,26.9-1.7c3.2-0.3,6.5-0.6,9.8-0.9c0.9-0.1,1.8-0.2,2.8-0.2c4.7-0.4,9.6-0.8,14.3-0.8c1.9,0,3.8,0.1,5.5,0.2
			c-4.7,1-9.3,2.7-13.9,5c-6.9,3.5-14.2,6.3-21.3,9c-6.5,2.5-13.2,5.1-19.7,8.2c-25.6,12.3-46.3,24.1-64.1,41.3
			c-1.4,1.3-2.9,2.6-4.4,3.8c-3.5,2.9-7.1,6-9.6,10.2c-0.1,0.2-0.5,0.6-0.8,0.6c-1.4,0.4-2.7,0.9-4.1,1.3c-6.1,2-11.8,3.8-17.7,3.8
			c-3.1,0-6-0.5-8.8-1.6c-4.3-1.6-8.6-2.4-12.9-2.4c-4.4,0-8.9,0.9-13.4,2.6C419.8,495.1,415.8,495.3,412.5,495.3L412.5,495.3z"/>
	</g>
</g>
</svg>
