<?xml version="1.0" encoding="utf-8"?>
<!-- Generator: Adobe Illustrator 25.0.1, SVG Export Plug-In . SVG Version: 6.00 Build 0)  -->
<svg version="1.1" id="Layer_1" xmlns="http://www.w3.org/2000/svg" xmlns:xlink="http://www.w3.org/1999/xlink" x="0px" y="0px"
	 viewBox="0 0 1049.9 1399.3" style="enable-background:new 0 0 1049.9 1399.3;" xml:space="preserve">
<style type="text/css">
	.st0{fill:#E71D36;}
</style>
<g>
	<path class="st0" d="M678.8,419c10.7,4.4,19.4,12.4,30.7,15.5c3.4,0.9,6.4,3.5,9.4,5.6c9.3,6.3,19.4,10.8,29.8,14.9
		c11.2,4.4,21,11.2,31,17.7c11.5,7.4,22.3,15.7,33.4,23.5c11.3,7.9,22,16.7,33.1,24.8c18.8,13.8,37.5,27.7,59.8,36.2
		c10,3.8,19.6,7.4,30.4,8.7c7.4,0.9,14.5,4.4,20.4,9.7c5.4,4.8,12.7,5.6,19.2,7.8c9.9,3.3,18,9,25.6,15.7c3.1,2.7,6.4,5.3,7.5,9.7
		c0.4,1.8,2.3,3,3.9,3.7c5,2.1,8.5,6.6,13.8,8.3c3.8,1.2,6.8,7.8,5.2,11.2c-3.7,7.5-6.8,15.6-14.2,20.7c-4.7,3.2-9.7,4.3-15.6,3.7
		c-6.9-0.7-14.1,1.2-20.8-1.5c-4.6-1.9-9.4-1.5-14.1-2.2c-7.2-1-13.5-4.4-20-7.1c-12.2-5-24.7-8.6-37.7-11.1
		c-9.9-1.9-19.2-3.5-28.8,0.3c-0.9,0.4-2,0.4-2.9,0.7c-16.4,4.5-19.2,1.3-25.3-15.7c-1.8-5.1-2.3-10.7-3.1-16.1
		c-1.2-8-5.6-11.9-11.8-12.1c-15.9-0.4-29-8.1-42.5-14.9c-10.4-5.3-21-9.1-32.6-10.1c-6.2-0.5-11.7-3.9-17.4-5.9
		c-11.6-4.2-23.7-7-34.3-13.7c-2.4-1.5-4.8-3-7.2-4.5c-1.4-0.9-2.8-2.6-4.2-2.6c-12-0.2-15.3-11.6-22.7-17.5c-2.3-1.8-3.9-2.3-6-0.4
		c-8.3,7.6-18.7,11.9-27.7,18.5c-2.3,1.7-4.4,3.4-6.2,5.7c-8.6,11-17.3,22-26,32.9c-3.4,4.3-7.2,8.3-11.7,11.5
		c-9.8,6.9-17.4,16-25.5,24.6c-1.4,1.5-2.4,3.2-3,5.1c-3.4,10.8-10.2,19.4-17.1,27.9c-8.2,10-19.6,12.4-31.6,13.6
		c-18.6,1.9-27.8,17.6-22.1,34c4.8,13.8,11.2,27,16.3,40.7c1.4,3.7,1.5,7.5,1.9,11.3c0.5,3.8-2.1,6.1-4.9,8.2
		c-7.2,5.3-15.5,8.4-23.6,11.9c-3.4,1.5-5.1,3.3-5.7,7.2c-2.5,15.5-3,31.2-5.3,46.6c-2.3,15.5-6.1,30.7-9.7,45.9
		c-5.1,21.4-13.8,41.8-18.6,63.2c-2.6,11.5-3.9,23.3-6.7,34.8c-1.1,4.5,1.9,8,4.1,11.5c19.3,30.9,27.6,64.3,23.9,100.6
		c-0.9,9.2,0.1,18.4,1.2,27.4c3.4,26.7,8.1,53.2,13.5,79.5c2.9,14,7.3,27.7,12.6,40.9c1.5,3.7,2.5,7.6,3.3,11.4
		c1.6,7.1-0.9,13.2-6.8,18.2c-8.1,6.9-18.3,10.2-26.5,16.9c-6.4,5.3-13.9,9.1-21,13.4c-14.6,8.9-28.6,18.9-42.9,28.3
		c-5.7,3.8-12,6.4-18.7,8c-0.8,0.2-1.7,0.3-2.5,0.1c-6-1.7-11.9-3.5-18.3-4.1c-3.3-0.3-7-5.9-8.9-10.6c-2.7-7,0-12.7,3-18.8
		c1.9-3.8,2-8.3,5.5-11.4c2.1-1.9,4.3-3.6,7.1-3c3.2,0.7,5.5-0.6,7.8-2.2c5.7-3.9,12.3-6.6,17.1-11.9c2.2-2.5,4.9-4.7,6.3-7.7
		c3.9-8.7,10.6-15.3,17.2-21.9c6.8-6.8,9.1-14.9,9.2-24.4c0.1-12.1-4.1-22.7-7.8-33.7c-3.6-10.9-8.4-21.3-11.8-32.2
		c-2.1-6.7-6.2-12.4-9.2-18.7c-4.5-9.5-7.9-19.3-10.6-29.5c-2-7.4-4.5-14.6-6.6-22c-3.5-12.4-6.4-24.9-8.2-37.8
		c-1.5-10.4-2.7-20.8-6.5-30.7c-6.4-16.7-13-33.2-16.3-50.9c-1.6-8.3-0.3-16.6-1.6-24.9c-0.3-1.8-0.2-3.6-0.9-5.3
		c-4.6-11.2-5.6-23.2-7.8-35c-1.9-10.1-5.4-19.9-5.6-30.4c-0.1-10.3-0.7-20.6-1.1-30.9c0-0.3,0.1-0.7-0.1-1
		c-3.7-5.7-3.8-11.8-2.6-18.4c0.3-1.7,0.2-3.5,1-5.4c2.9-6.9,6.5-13.6,3.8-21.8c-1.4-4.1,0.8-9-1.6-13.2c-0.2-0.3-0.1-1.1,0.2-1.4
		c4.3-6.1-0.1-11.3-1.3-16.9c-1.7-7.5-6.2-14.1-5.7-22.3c0.5-8.7-2.5-12-10.8-14.7c-2.5-0.8-5.1-1.4-7.6-2.3c-6-2.2-7-5.4-3.6-10.7
		c3-4.7,2.5-6.7-3-8.3c-5.3-1.6-7.8-4.2-6-9.8c0.8-2.5-0.6-4.1-2.2-5.7c-16.6-16.6-32.9-33.4-52.6-46.7c-11.7-7.9-22.4-17.3-33.6-26
		c-1.7-1.3-2.6-3-3.8-4.6c-8-10.5-18.7-17.3-29.7-24c-19.2-11.7-37.6-24.6-54.8-39.3c-3.3-2.8-4.2-1.8-5.1,1.7
		c-2.6,10.3-8.1,19.2-13.2,28.4c-4.4,7.9-8.3,15.9-13.8,23c-7.5,9.6-12.6,11.7-24.1,8.3c-4.6-1.4-9.2-3.1-13.7-4.8
		c-8-3.1-13.7-8.6-17.6-16.2c-2.3-4.4-4.7-8.8-7.3-13.1c-8.8-14.1-7.9-28-0.1-42.1c4.7-8.4,8.6-17.2,14.7-24.8
		c1.6-2,1.8-4.2,1.4-6.6c-0.4-2.3-0.7-4.6-1.2-6.9c-3.3-15.2,2.2-28.9,7.6-42.5c2-5.2,5.9-9.5,11.1-11.8c11.2-5,19.7-14.1,31-19
		c5.2-2.3,7.4-7.8,7.3-14.2c-0.1-6.9-2.9-12.2-6.5-17.7c-4.4-6.6-6.7-14.4-11.3-21c-2.7-3.9-2-8.8,1-13.6
		c5.3-8.4,13.4-14.3,18.9-22.4c2.4-3.5,6.8-4,10.3-5.8c5.3-2.6,5.4-3.7,3.5-9.3c-2.7-7.9-8.5-13.4-13.5-19.5
		c-5.8-7.1-10.8-14.5-9.4-24.4c0.1-0.6,0-1.4-0.3-2c-6.6-13-6.5-27.8-10.8-41.5c-0.6-2-0.7-4.3-0.7-6.4c-0.2-5.9,0.6-11.9-1.7-17.7
		c-1.3-3.4,0.3-6.8,2.6-9.3c14.9-16,31.9-28.3,54.3-32.2c13.6-2.4,26.3-1.7,39.2,2.9c6.4,2.3,11.6,6.2,16.1,10.6
		c6.2,6.1,13.2,11.8,17.1,19.9c0.7,1.5,1.8,2.9,1.5,4.7c-1.8,9.2,2.7,16.2,8.7,22.1c4.7,4.7,5.8,9.7,3.4,15.4
		c-2.3,5.3-2.2,9.7,1.6,14.3c4.5,5.5,5.7,12.4,5.5,19.3c-0.1,8.7,0.8,17.2,3.5,25.6c2.2,6.7,1.3,13.9,2.6,20.8
		c0.8,4.6,2.8,5.9,7.3,5.7c12.2-0.7,23.5-3.2,34.1-9.8c7.7-4.9,16.7-4.5,25.3-2.8c22.8,4.5,45.2,10.7,66.3,20.1
		c11.7,5.2,23,9.1,35.8,10.3c20.5,1.8,40.8,6.3,61.5,6c6.6-0.1,13.3-0.1,19.9-0.8c20.1-2.1,39.1,3,57.7,9.4
		c24.6,8.4,49.8,14.4,74.7,21.7c7.9,2.3,16.3,1.2,23.7,4.8c4.1,2,7.8,2.6,12.1,0.2c2.8-1.5,6.2-0.8,9.4-0.9
		c12.6-0.3,25.2-0.3,37.6-3.1c2.4-0.5,5.1-0.5,7.4,0.3c4.5,1.5,8.3,0.2,11.6-2.4c3.1-2.5,6-1.6,8.9-0.5c3.2,1.2,2.9,4.5,2.3,6.9
		c-1.2,4.9,1.6,6,5.2,6.3c6.4,0.6,12.3,2.3,17.8,5.7c3.5,2.2,8.1,1.3,11.9,3.2c2.8,1.4,5.1,3.8,8.1,4.7c0.3,0.1,0.7,0.5,0.7,0.6
		c-1,7.1,6.6,11.7,5.5,18.9c-0.5,3.3-2.1,6.1-5.1,6.7c-5.9,1.3-11.4,4.4-17.9,3.5c-4.1-0.6-8.3-0.3-12.4-0.6c-2.5-0.2-3.9,1-4.4,3.1
		c-0.8,3.7-3.1,4.9-6.6,4.4c-11.4-1.6-23-1.9-34.3-4.9C692.3,418.7,685.4,421.2,678.8,419z M638.2,411.9c-5.5-2.3-10.8,0.6-15.8-0.6
		c-10.4-2.5-20.9-1.3-31.3-0.5c-14.2,1.2-28.4,3.1-42.8,2.4c-11-0.5-21.7-2.8-32.5-4.4c-14-2.1-27.9-4.6-41.6-8.2
		c-9.8-2.6-19.6-3.1-29.4-3.8c-9.9-0.7-20.1,2-29.8-0.4c-8.6-2-16.4-0.5-24.5,1.5c-12.1,3-24.2,2.6-36-1.1
		c-5.2-1.7-10.3-3.9-15.4-5.9c-5.7-2.3-5.5-2.3-6,3.6c-0.7,7.9,1.9,14.8,4.9,22c8.3,20.2,16.3,40.4,29.2,58.4
		c5.6,7.8,12.5,12.7,21.7,14.3c4.9,0.8,9.3,2.5,13.2,5.6c1.7,1.4,3.4,2.7,5.7,2.7c5.5,0.1,11.1,0.4,16.3-1.6
		c8.3-3.2,16.5-3.3,24.9-0.1c11.2,4.2,21.5-0.3,31.9-3.5c0.7-0.2,1.5-0.9,1.9-1.5c3.4-5.7,9-9.2,13.6-13.6
		c18.5-17.9,40.7-29.9,63.6-40.9c13.3-6.4,27.7-10.5,41-17.2c8.8-4.4,18.4-6.7,28.6-5.8C632.3,413.2,635.2,413.3,638.2,411.9z"/>
</g>
</svg>
