<?xml version="1.0" encoding="utf-8"?>
<!-- Generator: Adobe Illustrator 23.1.1, SVG Export Plug-In . SVG Version: 6.00 Build 0)  -->
<svg version="1.1" id="Layer_1" xmlns="http://www.w3.org/2000/svg" xmlns:xlink="http://www.w3.org/1999/xlink" x="0px" y="0px"
	 viewBox="0 0 2834.6 2834.6" style="enable-background:new 0 0 2834.6 2834.6;" xml:space="preserve">
<style type="text/css">
	.st0{fill:#E71D36;}
</style>
<g>
	<g>
		<path class="st0" d="M1541.7,2832.5c-0.5,0-0.9-0.4-1-0.9c-1.7-15.3-11.5-26.2-20.6-35.3c-41.2-40.9-59.9-94.2-70.5-130.6
			c-2.1-7.2-4.3-14.5-6.4-21.5c-11.4-37.7-23.3-76.7-21-117.8c0.2-3.1-0.3-5.3-1.4-6.5c-0.7-0.7-1.7-1.1-3-1.1c-1.7,0-4,0.7-6.8,1.9
			c-17.2,8-23.2,17.6-20.6,33.3c0.4,2.2-0.2,4.5-0.8,6.7c-0.3,1.1-0.6,2.2-0.8,3.3c-2.6,15.1-8.4,29.2-14,42.8
			c-4.1,9.9-8.3,20.1-11.2,30.6c-1.2,4.1-2.3,8.4-3.4,12.5c-6.6,25.1-13.5,51-33.7,70.7c-2.6,2.6-3.2,6.4-3.6,11.2
			c-3.1,33.8-6.2,67.8-9.2,99.7c0,0.5-0.5,0.9-1,0.9c-99.3,0.1-200,0.1-297.4,0.1c-0.3,0-0.6-0.1-0.7-0.3c-0.2-0.2-0.3-0.5-0.3-0.8
			c3.1-29.4,7-61.5,12-100.9c2.1-16.6,1.4-35.4-20.1-48.2c-35.1-21-61.8-50.9-90.6-84.9c-15.3-18-22.6-42.3-20.7-68.3
			c2.5-32.9,8.4-70.9,32.7-103.7c8.9-11.9,12.6-26.8,16.3-41.1c1.8-6.9,3.6-14.1,6-20.9c10.1-28.7,13-59.1,15.9-88.6
			c1.2-12.3,2.4-25,4.2-37.4c3.3-24,4.9-48.4,6.4-72c0.7-10.9,1.4-22.2,2.3-33.3c0.6-7.7-0.3-15.5-1.2-23
			c-1.4-11.6-2.8-23.6,1.2-35.6c4.7-14.2,5.3-28.8,1.8-43.4c-1.4-6,0.5-12.5,5-16.8c9.5-8.9,9.5-20.2,8.5-29.1
			c-1-8.1,0.6-16,2.1-23.6c0.4-2,0.8-4,1.1-6.1c5-28.6,7.7-58,10.4-86.5c1.8-19,3.6-38.6,6.1-57.9c2.1-16.4,4.7-33,7.1-49
			c2.2-14.6,4.6-29.7,6.6-44.6c1.9-14.1-0.5-28.3-2.8-42c-1.2-7.3-2.5-14.8-3.1-22.3c-2.1-24.8-3.9-57.5,0.3-90.5
			c1.8-14.7-2.1-20.8-16.1-25.2c-42.5-13.5-77.3-24-109.6-33c-25.5-7-41.4-22.6-48.5-47.7c-3.1-10.9-7.2-21.7-11.1-32.2
			c-5.7-15.1-11.6-30.8-14.7-47.1c-6.8-34.5-4.7-69.5-2.6-103.4c0.4-5.9,0.7-12,1-17.9c2-40.8,10.3-74.8,25.3-104
			c2.9-5.8,0.7-10-3.1-15.9c-16.6-25.6-16.5-28.6,2.6-53.3c21.2-27.3,35.4-51,44.9-74.8c11-27.5,18.7-54.3,22.8-79.7
			c6-36.7,25.3-70.6,54.4-95.5c29-24.9,65.4-38.6,102.3-38.6h0.2c5.8,0,8.9-0.3,11-6c2.7-7.7,8.5-12.1,15.9-12.1
			c2.8,0,5.7,0.7,8.7,1.9c10,4.4,20,6.5,30.8,6.5c11.3,0,23.5-2.4,37.2-7.5c3.8-1.4,8-1.5,12.1-1.6c1.2,0,2.4-0.1,3.6-0.1
			c1.5-0.1,2.9-0.2,4.4-0.3c14.7-0.9,28.6-1.8,40.6-11.4c3.5-2.8,8.4-4.2,14.7-4.2c0.3,0,0.5,0,0.8,0c0.5,0,0.9,0,1.4,0
			c12.5,0,23.7-5.2,34.4-10.2c6-2.8,12.1-5.6,18.5-7.6c4.8-1.5,4.8-6.2,4.8-10.7V730c0.1-24.5,0.2-49.9,0.1-75
			c0-2.9-0.3-7.1-1.8-10.7c-6.7-16.4-11-34-13.3-53.7c-0.7-6.9-1.8-11.5-8.8-11.5c-0.5,0-1.1,0-1.6,0.1c-0.3,0-0.7,0.1-1,0.1
			c-6.1,0-9.6-5.6-9.8-11.2c-0.5-14.1-5.1-27.5-9.5-40.4c-1.3-3.7-2.6-7.5-3.7-11.2c-6.3-20-8.6-40.4-6.7-60.4
			c0.8-9.1,1.2-21-3.2-31.5c-9.6-23-9.2-47.1-8.8-70.4c0.1-7.6,0.2-15.4,0-23.1c-0.1-2.9-0.2-5.8-0.4-8.7c-0.6-11.4-1.1-23.2,2-33.9
			c1.9-6.5,3.6-13.2,5.3-19.7c7.4-28.9,15-58.7,43.2-77.7c3.7-2.5,6.1-6,8.6-9.7c2-2.9,4-5.9,6.8-8.3c17.3-15.6,37.9-25.3,57.8-34.8
			c20.5-9.7,43.6-15.8,66.7-17.9c15.4-1.4,30.8-2,45.9-2c25.1,0,50,1.9,74,5.6c11.9,1.8,22.5,5.3,32.3,10.8c7.6,4.3,16.9,8.7,27.5,9
			c7.3,0.2,13,4.9,17.7,9.3l1.4,1.2c7.1,6.3,14.4,12.9,24.4,12.9c1,0,1.9-0.1,2.9-0.2c0.3,0,0.7-0.1,1.2-0.1c0.9,0,3.2,0.1,3.8,1.4
			c4.1,7,10.9,11.5,18.2,16.2c11.5,7.5,23.4,15.3,23.4,33.7c0,7.1,4.2,14.4,8.2,21.5c1.2,2.1,2.4,4.2,3.5,6.3
			c10.7,21,11.1,43.9,11.4,66c0,2.9,0.1,5.8,0.2,8.6c0.3,11.5-0.8,23.3-1.8,34.8c-0.6,6.9-1.3,14-1.6,21
			c-0.6,12.2-4.7,23.6-8.7,34.5c-2.6,7.1-5.2,14.4-6.9,21.9c-0.3,1.6-0.8,3.2-1.3,4.7c-1.2,3.9-2.4,7.6-1.2,11.3
			c8.4,26.1,2.6,51.4-2.9,75.9c-1.2,5.4-2.5,10.9-3.6,16.4c-1,5.1-2.5,10.2-4,15.1c-1.8,6.2-3.7,12.5-4.7,19.1
			c-1.8,11.8-9.5,19.2-20.3,19.2c-1.7,0-3.4-0.2-5.1-0.5c-1.7-0.4-3.3-0.5-4.6-0.5c-6,0-7.6,3.7-8.5,10.5c-1.9,14-7,27.3-12,40.1
			c-5.9,15.2-12.1,31-12.6,47.9c-0.3,8.6-1.4,17.4-2.4,25.8c-0.2,1.7-0.4,3.4-0.6,5.2c-2.9,24.8,1.8,33.3,23.7,43.3
			c6.3,2.9,13,5.3,19.5,7.7c9.7,3.6,19.7,7.2,28.4,12.3c16.1,9.5,34.1,14.7,51.5,19.7c19.4,5.6,39.5,11.3,56.8,23.1
			c2.8,1.9,5.7,3.1,7.8,3.1c0.2,0,0.5,0,0.7,0c3.3-0.5,6.8-0.7,10.2-0.7c16.7,0,32,5.3,49.9,13.2c0.8,0.4,1.6,0.7,2.3,1
			c5.3,2.3,10.9,4.7,13.3,11c2.5,6.8,7.3,12.3,15.1,17.4c47.2,30.4,74.7,76.9,84.1,142c2.1,14.3,4.7,28.8,7.2,42.8
			c4.6,25.2,9.3,51.2,11,77.4c0.6,9.5,4.1,19,7.5,28.2c1.5,3.9,3,8,4.2,12.1c11.1,35.5,4,69.7-21.9,104.5c-5,6.7-7.3,13.3-7.5,21.4
			c-0.8,30.2-7.6,62.2-21.4,100.7c-6.1,17.1-13,34.2-19.6,50.7c-11,27.3-22.3,55.5-30.4,84.3c-6.3,22.6-13.6,46.4-27.2,68.1
			c-10.9,17.4-24.9,29.3-42.6,36.4c-6.2,2.5-7.7,5.2-7.1,12.8c1.7,20.9,4.2,42.2,6.7,62.8c5,42,10.2,85.3,8.3,128.3
			c-1.9,44.8,0.6,79.3,8.1,111.8c0.8,3.5,0.7,7.1,0.6,10.2c-0.8,22.4-0.2,41.1,5.1,59.9c4.3,15.2,5.4,31.8,3.3,52
			c-1.2,12.9,1.3,27.8,7.2,41.9c8.5,20.4,14.6,38.9,2.3,59c-3.1,5-1.7,11.4-0.3,17.6l0.3,1.2c7,33.8,9.4,69.3,7.3,108.6
			c-2.7,51.8,7,101.5,18.1,152.1c3.2,14.7,5.9,29.8,8.4,44.4c3,17.2,6.2,35,10.2,52.3c9.7,41.2,11.6,83.5,5.6,129.4
			c-2.2,17.6-13.8,31.3-26,43.5c-6.2,6.2-14.5,14-24.2,19.8c-12.7,7.8-16.8,18.9-13.6,37c1.7,10,3.2,20.2,4.7,30.1
			c0.7,4.8,1.5,9.7,2.2,14.5c0,0.3,0,0.6-0.2,0.8c-0.2,0.2-0.5,0.3-0.8,0.3H1541.7z"/>
		<path class="st0" d="M1475.9,119.3c24.7,0,49.4,1.8,73.9,5.6c11.2,1.7,21.9,5.1,32,10.7c8.6,4.8,17.6,8.8,28,9.1
			c6.8,0.2,12.1,4.4,17.1,9c7.7,6.9,15.4,14.4,26.5,14.4c1,0,2-0.1,3-0.2c0.3,0,0.7-0.1,1-0.1c1.2,0,2.6,0.3,3,0.9
			c10.9,18.7,41.5,20.4,41.5,49.5c0,9.5,7.1,19.2,11.8,28.3c12,23.5,10.9,49.4,11.5,74.2c0.5,18.3-2.5,37.1-3.4,55.7
			c-1,20-11.3,37.2-15.5,56.2c-1.2,5.5-4.3,10.9-2.5,16.5c10.1,31.5-0.5,61.5-6.5,91.7c-2.3,11.5-7,22.4-8.7,34.2
			c-1.6,11.1-8.9,18.3-19.3,18.3c-1.6,0-3.2-0.2-4.9-0.5c-1.8-0.4-3.4-0.6-4.8-0.6c-6.8,0-8.6,4.3-9.5,11.4
			c-4.1,30.5-23.6,56.7-24.7,88.1c-0.4,10.3-1.8,20.6-3,30.9c-2.9,24.8,1.5,33.9,24.3,44.3c15.8,7.2,33.5,11.6,47.9,20
			c34.1,20.2,75.5,20.5,108.3,42.7c2.4,1.6,5.6,3.3,8.3,3.3c0.3,0,0.6,0,0.9-0.1c3.4-0.5,6.7-0.7,10-0.7c17.4,0,33.5,6,49.5,13.1
			c6.2,2.8,12.5,4.7,15.1,11.5c3,8,8.8,13.5,15.5,17.9c51.5,33.2,75.3,83.1,83.7,141.3c5.8,40.1,15.6,79.5,18.2,120.1
			c0.8,13.7,7.6,27.1,11.8,40.5c12.1,38.6,1.4,72.5-21.7,103.6c-5.1,6.8-7.5,13.6-7.7,22c-0.9,34.8-9.7,68-21.3,100.4
			c-16.1,45.2-37.1,88.7-50,135c-6.6,23.7-13.8,46.7-27.1,67.8c-10.5,16.7-24.1,28.8-42.1,36c-6.9,2.8-8.3,6.1-7.7,13.8
			c5.1,63.7,17.7,127,15,191c-1.6,38-0.4,75.1,8.1,112.1c0.7,3.2,0.7,6.6,0.6,9.9c-0.7,20.3-0.5,40.2,5.1,60.2
			c4.7,16.6,5.1,33.8,3.3,51.6c-1.3,13.6,1.6,28.7,7.3,42.4c7.9,18.9,14.7,37.9,2.4,58.1c-3.5,5.7-1.6,13-0.2,19.5
			c7.4,35.8,9.2,71.9,7.3,108.3c-2.7,51.8,7.1,102.1,18.1,152.4c7,32.1,11.2,64.8,18.7,96.7c10.1,42.8,11.2,85.8,5.6,129
			c-2.2,17.3-13.6,30.8-25.7,42.9c-7.3,7.3-15.2,14.4-24,19.7c-15.1,9.3-16.8,22.5-14.1,38c2.5,14.8,4.6,29.7,6.9,44.6
			c-110.3,0-220.7,0-331,0c-1.7-15-11-26-20.9-35.9c-36.6-36.4-56.4-82.4-70.2-130.2c-13.1-45.2-30.1-90.3-27.4-139
			c0.3-5-1-8.6-5.4-8.6c-1.8,0-4.2,0.6-7.2,2c-15.8,7.3-24.1,16.6-21.2,34.4c0.5,3.1-1.1,6.4-1.6,9.7c-4.4,25.8-18.2,48.3-25.2,73.3
			c-8.2,29.2-13.5,60-36.8,82.7c-3,3-3.5,7.5-3.9,11.8c-3,33.2-6.1,66.5-9.2,99.7c-99.3,0.1-198.3,0.1-297.4,0.1
			c3.6-33.7,7.7-67.3,12-100.9c2.4-19,0.3-36.7-20.6-49.2c-35.9-21.5-63.7-53.2-90.4-84.7c-15.5-18.3-22.3-42.9-20.5-67.6
			c2.8-36.7,9.5-72.2,32.5-103.2c13.3-17.9,15.1-41.4,22.4-62.2c14.3-40.8,14.2-83.9,20.1-126.2c4.9-35.1,5.9-70.2,8.7-105.3
			c1.6-19.5-6.6-38.7,0-58.4c4.7-14.2,5.4-29.1,1.8-44c-1.3-5.5,0.5-11.8,4.7-15.8c9-8.4,10.1-18.8,8.8-29.9
			c-1.2-10.1,1.5-19.6,3.2-29.4c8.3-47.8,10.3-96.4,16.5-144.4c4.1-31.3,9.5-62.4,13.7-93.6c2.9-21.8-4.1-43-5.9-64.6
			c-2.5-30.2-3.5-60.3,0.3-90.3c1.8-14.3-1.6-21.5-16.8-26.3c-36.4-11.6-72.9-22.8-109.6-33c-25.2-6.9-40.8-22.2-47.8-47
			c-7.6-26.7-20.5-51.7-25.8-79.2c-7.9-40.4-3.7-80.7-1.6-121.1c1.8-36.1,8.5-71.1,25.2-103.6c3.3-6.5,0.3-11.5-3.2-16.9
			c-16.5-25.4-16.2-27.9,2.6-52.1c18-23.2,34.3-48.1,45-75c10.2-25.5,18.4-52.4,22.9-79.9c12.4-75.4,79.8-133.2,155.7-133.2
			c0.1,0,0.1,0,0.2,0c5.6,0,9.6-0.1,11.9-6.7c2.8-7.8,8.5-11.5,14.9-11.5c2.7,0,5.5,0.6,8.3,1.9c10.5,4.6,20.9,6.6,31.2,6.6
			c12.5,0,25-2.9,37.5-7.5c4.7-1.7,10.2-1.4,15.4-1.7c16-1.1,32.1-1.1,45.6-11.9c3.8-3,9.1-4,14-4c0.3,0,0.5,0,0.8,0
			c0.5,0,0.9,0,1.4,0c19.7,0,35.3-12.3,53.2-17.8c5.6-1.7,5.5-7.2,5.5-11.9c0.1-25,0.2-50,0.1-75c0-3.7-0.5-7.7-1.9-11.1
			c-7-17.2-11.1-35-13.2-53.4c-0.7-6.1-1.4-12.4-9.8-12.4c-0.5,0-1.1,0-1.7,0.1c-0.3,0-0.6,0-0.9,0c-5.4,0-8.6-4.9-8.8-10.2
			c-0.7-18.3-7.9-34.8-13.3-51.9c-6.2-19.6-8.6-39.6-6.7-60c1-11,0.9-22-3.3-32c-12.6-30.3-7.8-62-8.7-93.2
			c-0.4-14.1-2.3-29.1,1.6-42.2c10.4-34.9,13.9-73.8,48.1-96.9c6.9-4.7,9.5-12.7,15.5-18.1c17-15.3,37.3-25,57.6-34.6
			c21-9.9,43.8-15.8,66.4-17.8C1445.3,120,1460.6,119.3,1475.9,119.3 M1475.9,117.3c-15.1,0-30.6,0.7-46,2
			c-23.3,2.1-46.5,8.3-67.1,18c-20,9.4-40.6,19.2-58.1,34.9c-2.8,2.5-4.9,5.6-6.9,8.5c-2.5,3.6-4.8,7-8.4,9.4
			c-28.5,19.2-36.2,49.3-43.6,78.3c-1.7,6.5-3.4,13.2-5.3,19.7c-3.2,10.8-2.6,22.7-2,34.2c0.1,2.9,0.3,5.8,0.4,8.6
			c0.2,7.7,0.1,15.5,0,23.1c-0.4,23.4-0.8,47.6,8.9,70.8c4.4,10.4,4,22,3.2,31.1c-1.9,20.2,0.4,40.6,6.8,60.8
			c1.2,3.8,2.5,7.6,3.7,11.3c4.4,12.8,8.9,26.1,9.5,40.1c0.2,6,4,12.2,10.8,12.2c0.4,0,0.8,0,1.1-0.1c0.5,0,1-0.1,1.5-0.1
			c6.3,0,7.1,4,7.8,10.6c2.3,19.8,6.6,37.4,13.3,53.9c1.1,2.8,1.8,6.4,1.8,10.3c0.1,25,0,50.4-0.1,75v0.3c0,5.3-0.3,8.6-4.1,9.7
			c-6.5,2-12.7,4.9-18.6,7.7c-11.1,5.2-21.7,10.1-34,10.1c-0.4,0-0.9,0-1.3,0c-0.3,0-0.5,0-0.8,0c-6.5,0-11.6,1.5-15.3,4.4
			c-11.8,9.4-25.5,10.3-40.1,11.2c-1.5,0.1-2.9,0.2-4.4,0.3c-1.2,0.1-2.4,0.1-3.6,0.1c-4.2,0.1-8.5,0.3-12.4,1.7
			c-13.6,5-25.6,7.4-36.8,7.4c-10.6,0-20.5-2.1-30.4-6.5c-3-1.3-6.1-2-9.1-2c-7.8,0-13.9,4.7-16.8,12.8c-1.8,5.2-4.4,5.4-10,5.4
			h-0.2c-37.2,0-73.7,13.8-103,38.8c-29.2,25-48.6,59.1-54.7,96.1c-4.1,25.3-11.8,52-22.8,79.5c-9.4,23.6-23.6,47.3-44.7,74.5
			c-9.3,11.9-14.5,19.1-15,26.7c-0.4,7.4,3.6,14.4,12.3,27.7c3.6,5.6,5.8,9.6,3.1,14.9c-15.1,29.3-23.4,63.5-25.4,104.4
			c-0.3,6-0.7,12.1-1,17.9c-2,33.9-4.1,69,2.7,103.6c3.2,16.4,9.1,32.1,14.8,47.2c3.9,10.5,8,21.3,11.1,32.1
			c7.2,25.5,23.3,41.3,49.2,48.4c32.2,9,67,19.4,109.5,33c13.6,4.3,17.2,9.9,15.4,24.1c-4.2,33.1-2.4,65.9-0.3,90.7
			c0.6,7.5,1.9,15.1,3.1,22.4c2.3,13.7,4.7,27.8,2.8,41.8c-2,14.9-4.3,30-6.6,44.6c-2.5,16-5,32.6-7.1,49
			c-2.5,19.3-4.3,38.9-6.1,57.9c-2.7,28.4-5.4,57.8-10.4,86.4c-0.4,2-0.8,4.1-1.1,6.1c-1.5,7.7-3.1,15.6-2.1,23.9
			c1.5,13-0.9,21.4-8.2,28.2c-4.7,4.5-6.8,11.4-5.3,17.7c3.5,14.4,2.9,28.9-1.8,42.9c-4.1,12.3-2.7,24.4-1.3,36.1
			c0.9,7.5,1.8,15.2,1.2,22.8c-0.9,11.1-1.6,22.4-2.3,33.3c-1.5,23.6-3,48-6.4,71.9c-1.7,12.5-3,25.2-4.2,37.5
			c-2.9,29.4-5.8,59.8-15.8,88.3c-2.4,6.8-4.2,14-6,20.9c-3.6,14.2-7.4,28.9-16.1,40.7c-24.5,33-30.4,71.2-32.9,104.2
			c-1.9,26.3,5.5,50.8,21,69c28.9,34.1,55.7,64,90.9,85.1c9.3,5.6,15.2,12.5,18.2,21.1c2.4,7,2.8,15.3,1.5,26.1
			c-5,39.4-8.9,71.5-12,100.9c-0.1,0.6,0.1,1.1,0.5,1.5c0.4,0.4,0.9,0.7,1.5,0.7c97.4,0,198.1,0,297.4-0.1c1,0,1.9-0.8,2-1.8
			c3-32.1,6.2-66.2,9.2-99.7c0.4-4.5,0.9-8.2,3.3-10.6c20.4-19.9,27.3-45.9,34-71.1c1.1-4.1,2.2-8.3,3.4-12.4
			c2.9-10.4,7.1-20.6,11.2-30.5c5.6-13.7,11.5-27.9,14.1-43c0.2-1.1,0.4-2.1,0.8-3.3c0.6-2.3,1.2-4.6,0.9-7.1
			c-2.5-15.2,3.3-24.5,20.1-32.3c2.6-1.2,4.8-1.8,6.4-1.8c1,0,1.8,0.3,2.3,0.8c0.6,0.7,1.3,2.2,1.1,5.7c-2.3,41.3,9.6,80.4,21,118.1
			c2.1,7.1,4.4,14.4,6.4,21.5c7.8,27,16.5,49.9,26.7,69.7c12.3,24,26.7,44.1,44,61.3c11.1,11.1,18.8,21.2,20.3,34.7
			c0.1,1,1,1.8,2,1.8h331c0.6,0,1.1-0.3,1.5-0.7c0.4-0.4,0.5-1,0.5-1.6c-0.7-4.8-1.5-9.7-2.2-14.5c-1.5-9.9-3-20.1-4.7-30.1
			c-1.5-8.5-1.4-14.9,0.3-20.4c2-6.3,6.2-11.4,12.9-15.6c9.8-5.9,18.1-13.8,24.4-20c12.3-12.3,24-26.1,26.3-44.1
			c6-46,4.1-88.4-5.6-129.7c-4.1-17.2-7.2-35-10.2-52.3c-2.6-14.6-5.2-29.7-8.5-44.4c-11.1-50.5-20.8-100.2-18.1-151.9
			c2.1-39.4-0.3-75-7.3-108.8l-0.3-1.2c-1.3-6-2.7-12.2,0.2-16.8c5.8-9.6,8-19.6,6.7-30.8c-1.2-10-5.1-19.9-8.9-29.1
			c-5.8-14-8.4-28.7-7.2-41.4c2.1-20.3,1-37-3.4-52.3c-5.2-18.7-5.8-37.3-5-59.6c0.1-3.2,0.1-6.8-0.6-10.4
			c-7.5-32.5-9.9-66.9-8.1-111.6c1.8-43.1-3.4-86.5-8.4-128.5c-2.4-20.6-5-41.8-6.7-62.7c-0.6-7.2,0.6-9.4,6.5-11.8
			c17.9-7.2,32-19.2,43-36.8c13.7-21.8,21-45.7,27.3-68.3c8-28.7,19.4-56.9,30.3-84.1c6.7-16.5,13.5-33.6,19.6-50.7
			c13.8-38.6,20.6-70.7,21.4-101c0.2-7.9,2.4-14.4,7.3-20.9c26.1-35.1,33.2-69.5,22-105.4c-1.3-4-2.8-8.1-4.3-12.1
			c-3.4-9.1-6.9-18.6-7.5-27.9c-1.7-26.2-6.4-52.3-11-77.5c-2.5-14-5.2-28.5-7.2-42.8c-9.4-65.4-37.1-112.1-84.6-142.7
			c-7.6-5-12.2-10.3-14.7-16.9c-2.6-6.7-8.3-9.2-13.8-11.6c-0.8-0.3-1.5-0.7-2.3-1c-18-8-33.4-13.3-50.3-13.3
			c-3.4,0-6.9,0.2-10.3,0.7c-0.2,0-0.4,0-0.6,0c-1.9,0-4.6-1.1-7.2-2.9c-17.5-11.9-37.7-17.6-57.1-23.2c-17.4-5-35.3-10.1-51.3-19.6
			c-8.8-5.1-18.9-8.8-28.6-12.4c-6.5-2.4-13.2-4.8-19.5-7.7c-21.7-9.9-26-17.8-23.1-42.2c0.2-1.7,0.4-3.4,0.6-5.1
			c1-8.5,2.1-17.2,2.4-25.9c0.6-16.8,6.7-32.4,12.6-47.6c5-12.9,10.2-26.2,12.1-40.3c1-7.4,2.7-9.6,7.5-9.6c1.3,0,2.7,0.2,4.4,0.5
			c1.8,0.4,3.6,0.5,5.3,0.5c11.3,0,19.4-7.7,21.2-20c0.9-6.5,2.8-12.8,4.7-18.9c1.5-4.9,3-10,4-15.2c1.1-5.4,2.3-11,3.5-16.3
			c5.6-24.6,11.3-50.1,2.9-76.4c-1.1-3.4,0-6.9,1.2-10.7c0.5-1.6,1-3.2,1.4-4.8c1.6-7.4,4.3-14.7,6.8-21.7c4-11,8.1-22.4,8.7-34.8
			c0.3-7,1-14.1,1.6-20.9c1-11.5,2.1-23.4,1.8-34.9c-0.1-2.9-0.1-5.8-0.2-8.6c-0.4-22.2-0.7-45.2-11.6-66.4
			c-1.1-2.1-2.3-4.3-3.5-6.4c-4-7-8.1-14.2-8.1-21c0-18.9-12.1-26.9-23.8-34.5c-7.2-4.7-13.9-9.1-17.9-15.9c-0.8-1.6-3-1.9-4.7-1.9
			c-0.5,0-0.9,0-1.3,0.1c-0.9,0.1-1.9,0.2-2.8,0.2c-9.7,0-16.5-6.1-23.8-12.6c-0.5-0.4-0.9-0.8-1.4-1.2c-4.9-4.5-10.7-9.3-18.4-9.5
			c-10.4-0.3-19.5-4.6-27.1-8.8c-10-5.5-20.7-9.1-32.7-10.9C1526.1,119.2,1501.1,117.3,1475.9,117.3L1475.9,117.3z"/>
	</g>
</g>
</svg>
