<?xml version="1.0" encoding="utf-8"?>
<!-- Generator: Adobe Illustrator 23.1.1, SVG Export Plug-In . SVG Version: 6.00 Build 0)  -->
<svg version="1.1" id="Layer_1" xmlns="http://www.w3.org/2000/svg" xmlns:xlink="http://www.w3.org/1999/xlink" x="0px" y="0px"
	 viewBox="0 0 2834.6 2834.6" style="enable-background:new 0 0 2834.6 2834.6;" xml:space="preserve">
<style type="text/css">
	.st0{fill:#E71D36;}
</style>
<g>
	<g>
		<path class="st0" d="M1382.9,98.9c14,0,28,2.2,41.6,5.6c39.7,9.8,77.5,25.7,113.7,45.7c18.4,10.1,23.5,28.5,32.6,44.6
			c16.8,29.7,28.6,61.2,32.1,95.4c2.6,25.3,5.7,50.6,1.6,76.1c-1.1,6.8-0.4,11.5,5.1,11.5c1.6,0,3.5-0.4,6-1.2
			c2.4-0.8,4.6-1.2,6.7-1.2c7.7,0,13.9,5,19.2,11.2c13.2,15.3,14.2,33.4,10.4,52.1c-4.8,24-11.1,47.7-19.4,70.7
			c-4.3,12.1-14.2,18.2-26.1,18.5c-10.5,0.3-10.8,5.2-11,13.2c-0.4,21.3-0.1,42.9,4.2,63.3c5.2,24.6,16.3,47.7,39.9,61.4
			c2.3,1.4,4.6,2.2,7,2.2c1.6,0,3.3-0.4,5-1.3c4.5-2.4,9.1-3.5,13.6-3.5c6,0,11.9,2,17.3,5.5c24,15.5,51.3,24.3,77.5,33.8
			c20.1,7.3,39.5,16.7,59.7,23.6c20.1,6.9,37.5,18.1,49,36.4c11.9,18.8,29.8,31.6,46.1,45.5c34.5,29.3,50.8,67.1,56.7,110.5
			c8.4,62.6,7,126-3.3,187.3c-9.8,58-17.4,117.6-41.3,172.7c-7.3,16.9-14.5,33.8-23.7,49.7c-22.9,39.5-35.1,82.8-48,126.3
			c-6.1,20.4-5.3,43-14.3,60.9c-14.9,29.6-13.2,62.4-24.3,91.8c-12.1,31.9-16.2,64.2-16.9,97.7c-0.3,16-3.3,32.1-9.7,46.8
			c-9.9,22.5-11.7,46.2-13.4,70.3c-1.1,15.7,1.3,28.4,9.9,42.1c10.9,17.3,17.1,36.8,3.6,57c-3.7,5.6,5.9,27.9,14.5,33.1
			c11.2,6.7,13.5,15.1,13.1,28.2c-1.4,42.6-0.5,84.9,15.1,126.1c22.4,59.5,33.7,121.1,32.3,185.4c-0.7,34.7,10.3,68.7,15.2,103.2
			c2.2,15.8,4.9,31.6,1.9,47.8c-1.5,7.9-1.1,16,0.7,23.9c10.8,46.6,10.7,94.4,14.8,141.8c1.4,15.7-2.5,31.8-4.7,47.7
			c-1.1,8.1-4.3,15.8-13.8,17.6c-1,0.2-1.9,0.3-2.7,0.3c-7.6,0-10.7-6.9-15.5-15.9c-5,60.5-2.3,117.3,6,173.9
			c-117.9,0-235.8,0-353.7,0c-2.2-9.2-4.7-18.3-6.5-27.5c-1.8-9-6.2-13.7-15.9-14.7c-15.9-1.7-31.5-5.2-46.8-10.3
			c-12.3-4.1-22.1-11.4-28.3-22.1c-7-12.2-15.8-23.4-20.1-37.2c-1.5-4.8-3.6-10.5-11.2-12.3c-8.1,43-18.6,84.5-35.4,124.1
			c-91.3,0.1-182.8,0.1-274.2,0.1c-8.4-29.8-19.1-59.2-18.2-91c0.3-9.1-2.1-17.7-5.3-26.2c-10.2-27.4-19.6-55.2-24.7-84
			c-3-17.2-10.9-30.2-24.1-39.8c-33.9-24.6-41.4-61.4-46.8-98.9c-3.8-26.3,4.8-52.6,3.5-78.9c-2.1-39.3,7.8-78,0.8-118
			c-6.1-34.9-2.8-71.4,1.7-107.1c3.3-25.6,2.6-51.7,9.8-76.9c5.2-18.3,10.3-36.5,21.4-52c22.4-31.4,30-68.6,41.6-104.1
			c12.1-37,20.5-75.4,44.2-107.6c4.8-6.5,5.8-11.8-2.3-17.6c-16.7-11.9-20.4-28.9-14.2-47.8c6.6-20.1,13-40.5,21.6-59.8
			c27.9-62.4,40.5-128,44.2-195.8c0.9-16,3.4-31.8,5.2-47.8c0.9-7.8-1.3-12.5-8.4-12.5c-1,0-2.1,0.1-3.3,0.3
			c-12.2,1.9-24.3,2.7-36.4,2.7c-25.4,0-50.8-3.5-76.1-7.2c-10.9-1.6-21.8-2.4-32.7-2.4c-9.8,0-19.6,0.6-29.4,1.9
			c-2.8,0.3-5.6,0.5-8.2,0.5c-19.3,0-33.1-9.2-44-26c-34.1-52.6-39.5-111.1-33.9-171.4c3.9-42.6,16.9-82.6,35.8-121.4
			c7.1-14.6,15.4-28.4,22.8-42.8c1.3-2.5,3.1-4.9,5.2-6.6c36.8-30.2,55.2-70,62.9-116.2c9.7-57.8,36.3-109.1,68.3-157
			c19.7-29.5,48.3-49.6,85.5-55.2c15.1-2.3,29.5-9.2,44-14.9c15-5.8,30-11.8,46-13.5c18.7-1.9,32-14.8,47.9-22.2
			c5.5-2.5,4.5-7.7,3.6-12.4c-5.1-27.3-10.3-54.6-15.4-82c-1-5.3-2.9-9.8-6.6-13.8c-12.7-13.8-20.8-30.2-25.7-48.2
			c-2-7.5-5.3-12.1-13.7-13.8c-12.8-2.5-18.9-10.2-21.4-24.2c-2.9-17-8.3-33.7-11.8-50.8c-3.6-17.9-3-35.5,0.2-53.3
			c2-10.9,7.1-18,17.3-18c1.6,0,3.2,0.2,5,0.5c1.7,0.3,3.1,0.5,4.2,0.5c5.8,0,5.2-4,3.5-10.3c-9-32.5-10.9-65.8-10.7-99.4
			c0-8.1,0-16.1-6.7-22.2c-1.8-1.6-3.1-4-1.8-6.3c7.2-12.8,6.9-26.9,8.3-41c0.8-8.9,4.9-16.4,13.2-22c7.3-4.9,14-11.6,18.9-18.9
			c23.4-34.1,58.9-52.2,93.6-70.8C1349.1,102.2,1366,98.9,1382.9,98.9 M1382.9,96.9c-18.7,0-35.8,4.1-50.7,12l-4.1,2.2
			c-33.1,17.7-67.4,36.1-90.2,69.2c-4.8,7.1-11.3,13.6-18.4,18.4c-8.5,5.7-13.2,13.6-14.1,23.5c-0.3,2.6-0.5,5.2-0.7,7.7
			c-0.9,11.5-1.7,22.4-7.4,32.4c-1.6,2.8-0.7,6.2,2.2,8.8c6,5.5,6,12.9,6,20.7c-0.3,53,5.6,81.2,10.8,99.9c0.5,2,1.7,6,0.8,7.1
			c-0.3,0.4-1.1,0.6-2.4,0.6c-1,0-2.3-0.2-3.8-0.5c-1.9-0.4-3.7-0.6-5.4-0.6c-10.4,0-16.9,6.6-19.2,19.7
			c-3.5,19.5-3.6,37.2-0.2,54.1c1.5,7.5,3.5,15.1,5.3,22.4c2.4,9.3,4.8,18.9,6.5,28.4c2.7,15.3,9.8,23.3,23,25.8
			c7.8,1.6,10.4,5.9,12.2,12.4c5.4,19.7,13.9,35.7,26.2,49c3.2,3.5,5.1,7.4,6.1,12.8c2.8,14.9,5.6,30,8.4,44.6
			c2.4,12.5,4.7,25,7,37.4c1,5.2,1.4,8.5-2.5,10.2c-5.4,2.5-10.5,5.6-15.5,8.7c-10.2,6.2-19.8,12.1-31.8,13.3
			c-15.6,1.7-30.4,7.4-44.7,12.9l-1.8,0.7c-3,1.2-6,2.4-8.8,3.6c-11.3,4.6-22.9,9.4-34.7,11.2c-18.4,2.8-35.3,9.1-50.1,18.9
			c-14.2,9.4-26.6,21.9-36.7,37.1c-38.4,57.5-60.2,107.6-68.6,157.8c-8.3,49.8-28.7,87.5-62.2,115c-2.2,1.8-4.2,4.3-5.7,7.2
			c-3.2,6.2-6.5,12.3-9.8,18.3c-4.4,8-8.9,16.2-13,24.6c-20.6,42.2-32.3,82.2-36,122.1c-3.1,33.5-2.4,62.7,2.1,89.1
			c5.3,31.1,15.8,58.4,32.1,83.6c11.7,18.1,26.6,26.9,45.6,26.9c2.7,0,5.6-0.2,8.5-0.5c9.7-1.2,19.5-1.8,29.1-1.8
			c10.9,0,21.8,0.8,32.4,2.3c25.8,3.8,51.1,7.2,76.4,7.2c13,0,25-0.9,36.7-2.7c1.1-0.2,2.1-0.2,3-0.2c2.4,0,4,0.6,5.1,1.7
			c1.4,1.5,1.8,4.4,1.4,8.5c-0.6,4.9-1.2,9.9-1.8,14.7c-1.4,10.8-2.8,22-3.4,33.2c-4,74.1-18.4,137.9-44,195.1
			c-7.7,17.4-13.8,35.8-19.6,53.7c-0.7,2.1-1.4,4.2-2.1,6.3c-6.9,20.9-1.7,38.2,14.9,50.1c3.1,2.2,4.8,4.3,5.1,6.5
			c0.4,2.2-0.6,4.8-3.2,8.3c-19.3,26.2-28.7,56.9-37.8,86.6c-2.2,7.1-4.4,14.4-6.7,21.6c-2.5,7.6-4.8,15.5-7.1,23
			c-8.3,27.6-16.8,56.1-34.2,80.5c-11.2,15.6-16.4,34.1-21.5,52l-0.2,0.6c-4.8,16.9-6.2,34.4-7.4,51.3c-0.6,8.5-1.3,17.3-2.4,25.8
			c-4.2,33-8.1,71.2-1.7,107.7c4.1,23.2,2.3,46.4,0.7,68.8c-1.2,16-2.4,32.6-1.5,49c0.6,11.5-0.8,23.3-2.2,34.7
			c-1.7,14.5-3.5,29.5-1.3,44.4c5.6,38.7,13.4,75.4,47.6,100.2c12.8,9.3,20.4,21.9,23.3,38.5c5.3,29.7,15,58.1,24.8,84.4
			c2.7,7.3,5.5,16,5.2,25.4c-0.8,26.9,6.8,52.4,14,77c1.4,4.8,2.9,9.8,4.3,14.6c0.2,0.9,1,1.5,1.9,1.5c89.9,0,182.9,0,274.2-0.1
			c0.8,0,1.5-0.5,1.8-1.2c14.6-34.4,25.8-73.3,35.1-122.3c4.7,1.9,6.4,6,7.7,10.3c3.2,10.1,8.7,18.9,14.1,27.4
			c2.1,3.3,4.2,6.7,6.2,10.1c6.3,10.9,16.2,18.6,29.4,23c15.7,5.2,31.5,8.7,47.2,10.4c8.5,0.9,12.4,4.5,14.2,13.1
			c1.3,6.4,2.9,12.8,4.4,19.1c0.7,2.8,1.4,5.7,2.1,8.5c0.2,0.9,1,1.5,1.9,1.5h353.7c0.6,0,1.1-0.3,1.5-0.7c0.4-0.4,0.6-1,0.5-1.6
			c-8.4-57.3-10.5-111.9-6.5-166.6c3.5,6.2,7.2,10.9,14,10.9c1,0,2-0.1,3.1-0.3c8.8-1.7,13.9-8,15.4-19.3c0.5-3.8,1.2-7.7,1.8-11.5
			c2-12,4-24.5,2.9-36.7c-1.1-13.1-2-26.6-2.8-39.5c-2.1-33.8-4.2-68.7-12.1-102.5c-1.8-8-2.1-15.8-0.7-23.1
			c2.8-15.2,0.7-30.2-1.4-44.7c-0.2-1.3-0.4-2.5-0.5-3.8c-1.7-11.9-4.1-23.9-6.5-35.6c-4.5-22-9.1-44.8-8.7-67.3
			c0.7-31.8-1.7-63.7-7.3-94.9c-5.4-30.5-13.8-61.2-25.2-91.3c-16.2-42.8-16.2-87.1-15-125.3c0.4-13.1-1.8-22.7-14.1-30
			c-5.6-3.4-11.9-15.3-13.8-23.6c-0.8-3.7-0.6-5.9-0.1-6.7c6.5-9.7,9.1-20.1,7.7-30.9c-1.1-8.8-4.8-18-11.2-28.2
			c-7.9-12.5-10.7-24.7-9.6-40.9c1.6-23.2,3.3-47.1,13.2-69.6c6.2-14.3,9.5-30.3,9.9-47.6c0.8-38.1,6.1-69,16.8-97
			c4.9-13.1,7.4-27,9.8-40.4c3-17.1,6.2-34.8,14.4-51.2c5.5-10.9,7.4-23.6,9.3-35.9c1.3-8.4,2.6-17.1,5.1-25.3l2-6.7
			c11.9-40.3,24.2-81.9,45.8-119.2c8.9-15.4,16-31.9,22.9-47.9l0.9-2c21-48.4,29.5-100.6,37.8-151.1c1.2-7.2,2.4-14.7,3.6-22
			c10.5-62.6,11.6-125.8,3.3-187.9c-6.5-47.9-25.3-84.5-57.4-111.8c-3-2.5-6-5.1-9-7.5c-13.3-11-27.1-22.4-36.7-37.5
			c-10.8-17.2-27.2-29.4-50-37.2c-10.9-3.7-21.8-8.3-32.3-12.7c-8.9-3.7-18.1-7.6-27.4-10.9c-3.2-1.2-6.4-2.3-9.6-3.5
			c-22.9-8.2-46.6-16.7-67.5-30.1c-6-3.9-12.2-5.8-18.4-5.8c-4.9,0-9.8,1.3-14.5,3.8c-1.4,0.7-2.7,1.1-4.1,1.1c-1.8,0-3.8-0.6-6-1.9
			c-20.1-11.7-32.9-31.3-39-60.1c-4.3-20.4-4.5-42.3-4.2-62.8c0.2-7.8,0.3-11,9.1-11.2c13.4-0.3,23.6-7.6,27.9-19.8
			c7.9-21.8,14.4-45.7,19.5-71c4.6-22.8,1.2-39.9-10.8-53.8c-4.4-5.1-11.3-11.9-20.7-11.9c-2.4,0-4.9,0.4-7.3,1.3
			c-2.1,0.7-3.9,1.1-5.3,1.1c-1.9,0-2.4-0.7-2.6-0.9c-1-1.2-1.2-4-0.5-8.3c3.9-24.1,1.4-48.3-1.1-71.7c-0.2-1.6-0.3-3.3-0.5-4.9
			c-3.3-32-13.9-63.5-32.3-96.2c-2-3.6-3.9-7.4-5.8-11.1c-6.3-12.8-12.9-26.1-27.6-34.2c-39-21.5-76.3-36.5-114.2-45.9
			C1409.7,98.7,1395.9,96.9,1382.9,96.9L1382.9,96.9z"/>
	</g>
</g>
</svg>
