<?xml version="1.0" encoding="utf-8"?>
<!-- Generator: Adobe Illustrator 23.1.1, SVG Export Plug-In . SVG Version: 6.00 Build 0)  -->
<svg version="1.1" id="Layer_1" xmlns="http://www.w3.org/2000/svg" xmlns:xlink="http://www.w3.org/1999/xlink" x="0px" y="0px"
	 viewBox="0 0 2834.6 2834.6" style="enable-background:new 0 0 2834.6 2834.6;" xml:space="preserve">
<style type="text/css">
	.st0{fill:#E71D36;}
</style>
<g>
	<g>
		<path class="st0" d="M1985.6,2835.6c-348.7-0.1-703.5-0.1-1046.6-0.1c-0.4,0-0.8-0.3-0.9-0.6c-3.2-8.2-1.8-16.4-0.4-24.3
			c0.4-2.2,0.8-4.5,1.1-6.8c2.1-16.3,4.5-32.7,6.8-48.6c1.8-12.5,3.7-25.4,5.4-38.2l0.1-0.5c0.8-5.8,1.6-12.3-0.2-17.2
			c-8.2-21.6-4.3-43.3-0.6-64.2c0.3-1.5,0.5-3,0.8-4.5c1.7-9.6,3.1-19.4,4.5-29c4.1-28.6,8.3-58.1,21-85.4c4.7-10,3.3-20.5,1.8-31.5
			c-0.2-1.8-0.5-3.6-0.7-5.4c-4.1-34.4-1-68.2,3.2-105.7c0.6-5.9,1.4-11.9,2.1-17.7c2.6-20,5.2-40.8,3.3-61.9
			c-4.7-54.4,3.5-111.3,25.1-174.1c4.3-12.4,3.5-25,2.8-37.2c-0.2-4.2-0.5-8.6-0.6-12.8c-0.5-36.4,5.4-68.4,18.1-97.9
			c2.1-5,2.5-9.2,1.4-13.1c-1.9-6-3-12.3-4-18.4c-2.1-11.8-4.2-24-12.1-34.6c-8.8-11.9-8.1-27.3,1.9-42.4c4.5-6.7,5.7-13,4.2-21.9
			c-5-31.1-9.1-68.1-1.6-105.8c4.6-22.7,0.9-45.5-2.5-67.4c-0.8-4.8-1.6-9.8-2.3-14.7c-1.1-7.8-2.1-15.8-3.1-23.5
			c-4-32.1-8.2-65.3-22.2-95.9c-0.7-1.5-1.3-3-2-4.5c-2.4-5.7-4.7-11.1-9.3-15.7c-8.9-8.9-9.2-21.2-8.6-29.8
			c0.8-11.7-4.2-18.5-15.9-21.5c-9.8-2.5-17.4-5.5-23.9-9.4c-7.3-4.5-14.2-9.8-15.8-18.4c-0.3-1.6-0.6-3.1-0.9-4.7
			c-2.4-12.7-4.8-25.9-4.3-38.8c1.5-35.9-4.1-71.6-9.5-106.2c-0.5-3.3-1-6.6-1.6-9.9c-0.2-1.5-0.7-3.5-1.7-4.8
			c-24.4-29.6-18.2-63-12.2-95.3c0.4-2.4,0.9-4.8,1.3-7.2c6.2-34.2,11.2-69,16.1-102.7c1.9-13.2,3.9-26.9,5.9-40.4
			c9.1-60.4,40.2-106,92.5-135.6c4-2.2,7.9-4.5,11.9-6.7c28.3-16,57.5-32.6,87.5-46.9c18.3-8.7,36-19.5,53.1-30
			c6.1-3.8,12.5-7.6,18.8-11.4l0.7-0.4c4-2.3,7.7-4.5,12.7-4.7c2.7-0.1,6.5-0.4,9-2c17.5-11.1,32.2-20.2,49-28.3
			c28.5-13.5,34.7-43.1,34.8-65.5c0.1-18.6-1.6-33.1-5.4-45.8c-6.5-21.6-11.3-39.4-15-56c-1.3-5.6-2.6-7.6-5.2-7.6
			c-1.4,0-3.2,0.6-5.6,1.9c-2.7,1.5-5.5,2.3-8.2,2.3c-5.7,0-11.2-3.4-16.3-10.1c-8.8-11.5-17.5-24.4-20.9-40.2
			c-2.9-13.5-6.4-27.2-9.8-40.4c-0.7-2.5-1.3-5-2-7.6c-2.3-9-2.1-18.3-1.6-27c1.5-28,14.5-33.8,25.1-33.8c6.2,0,13.6,2,21.9,5.9
			c-3.2-11.5-5.3-22.5-6.5-34.3l-0.1-1.1c-1-9.9-2-20.2-0.2-30.2c2.9-15.8,4.2-32.1,5.5-47.9c1.4-16.5,2.8-33.7,6-50.2
			c4-20.7,8.6-40.9,21.2-59.9c9.5-14.2,21.6-22.4,34.4-31c1.9-1.3,3.8-2.6,5.7-3.9c10.1-7,21.2-12.5,31.9-17.9
			c15.4-7.7,31.3-15.7,44.4-27.9c14.9-13.8,35.5-21.4,58-21.4c5.2,0,10.3,0.4,15.4,1.2c5,0.8,10.1,1.3,15.4,1.8
			c12.4,1.2,25.3,2.5,37.2,7.7c3.9,1.7,7.1,4.3,10.2,6.8c3.4,2.8,6.6,5.4,10.8,6.9c6.3,2.4,12.9,4.3,19.3,6.1
			c9.4,2.7,19.1,5.5,28.4,9.9c31.3,15.1,63.2,32.8,79.8,68.8l0.2,0.4c0.5,1.1,1,2.2,1.8,2.7c25.7,17.3,20.8,40.4,16.2,62.8
			c-0.8,3.9-1.7,7.9-2.3,11.8c-0.5,3.1-1.2,6.2-1.8,9.2c-1.3,5.9-2.6,11.9-2.8,18.1c-0.4,11.5-0.3,23.2-0.1,34.5
			c0.3,23.5,0.7,47.8-4.2,71.5c-0.5,2.3-0.3,4,0.4,4.9c0.6,0.7,1.7,1.1,3.2,1.1c0.3,0,0.6,0,0.9,0c0.6,0,1.1-0.1,1.7-0.1
			c12.6,0,16.1,9.8,17.8,18.3c7.6,39.8-1.7,77.3-11.7,108.7c-5.7,17.9-14.9,26.7-28.2,26.7c-2.1,0-4.4-0.2-6.7-0.7
			c-0.5-0.1-0.9-0.1-1.3-0.1c-3.1,0-4.2,2.5-5.4,6.3l-0.3,0.9c-2.3,7.2-4.4,14.5-6.5,21.7c-0.7,2.2-1.3,4.5-2,6.7
			c-4.3,14.9-10.2,31.9-22.1,46c-15.7,18.6-25.1,38.2-28.5,59.9c-1.6,10.3-4.2,20.5-6.6,30.4c-3.9,15.6-7.8,31.8-8.4,48.3
			c-0.2,7.7,1.8,11.9,7.5,15.4c6.1,3.9,12.6,7.1,20,9.8c20.3,7.5,35.5,16.2,47.7,27.6c5.4,5,11.9,8.7,20.3,11.6
			c4.4,1.4,8.7,2.9,13.1,4.3c30.4,10.1,61.8,20.5,93.3,29c11.7,3.1,23.2,7.6,34.3,11.9c10,3.9,20.4,8,30.9,11
			c7.7,2.3,14.1,6.2,17.1,10.6c6.8,9.9,15.2,18.9,23.4,27.6c14.8,15.9,30.2,32.4,36.9,54.8c3.4,11.6,9.5,22.1,18.2,31.1
			c6.6,6.9,10.1,15.5,10.7,26.2c1,20.9,7,42.7,18.9,68.6c8.8,19.1,13.4,38.7,17.6,62.2c1.5,8.3,3.2,14.9,11.1,18.7
			c2.4,1.1,7.4,4.4,7.4,7.4c-0.1,14.8,8.6,23.9,17.7,33.6c4.4,4.7,9,9.5,12.4,15c0.7,1.1,1.4,2.1,2.1,3.2c3.4,5.2,7,10.5,6.9,17.6
			c0,3.7,0.8,6.9,2.3,8.7c32.8,40.1,45.7,89,58.3,136.2c1.9,7,3.8,14.2,5.7,21.3c11.8,42.6,23.2,88.1,21.5,135.1
			c-1,27.5-6.5,51.8-16.9,74.3c-9.9,21.3-24.3,31.7-44,31.7c-1.9,0-3.8-0.1-5.8-0.3c-4.5-0.5-9.1-0.7-13.7-0.7
			c-27.5,0-54.8,8-88.6,25.8c-20,10.5-41.9,20.3-67.1,20.3c-2.5,0-5-0.1-7.5-0.3c-0.7-0.1-1.4-0.1-2.1-0.1c-3.5,0-6.3,0.7-8.1,2
			c-12,9.1-25.4,16.1-38.4,22.9c-7.5,4-15.4,8.1-22.8,12.5c-3.8,2.3-5.7,4.3-6.1,6.5c-0.4,2.1,0.5,4.5,2.9,7.6
			c14.2,18.4,23.1,39.9,31.8,60.7c1.9,4.5,3.8,9.2,5.8,13.8c4.9,11.5,2.2,23-0.4,34c-0.3,1.3-0.6,2.7-0.9,4
			c-1.1,4.9-2.5,9.7-3.9,14.4c-1.6,5.5-3.3,11.3-4.4,17c-2.2,11.2-4,24.2,3.4,36.3c5.6,9.2,5.6,19.8,5.5,30.1c0,2.6,0,5.1,0.1,7.6
			c0.3,10.4,3.6,19.9,6.9,29.1c3,8.4,6,17.1,6.7,26.2c0.1,1.4,0.5,3,0.8,4.6c0.7,2.9,1.4,5.9,0.4,8.3c-6.1,14.3-2.3,27.2,1.8,40.9
			c0.7,2.4,1.5,4.9,2.1,7.3c3,10.8,5.3,22.5,2.6,35.3c-1.6,7.7,0.9,15.5,3.4,23c0.6,1.8,1.2,3.7,1.7,5.5c5.1,17,8.3,34.7,11.4,51.8
			c2.8,15.2,5.6,31,9.7,46c3.9,13.8,6.4,28,8.9,41.8c4.5,24.9,9.1,50.7,21.5,74.7c11.3,21.9,17.3,47,23.1,71.2
			c2.4,10,4.9,20.3,7.7,30.2c10.5,37.2,16.3,66.3,18.7,94.3c0.1,1.3,0.3,2.5,0.5,3.8c0.4,2.5,0.7,5.1,0.4,7.7
			c-5.3,43,4.3,84.8,13.5,125.2c2.9,12.6,5.9,25.7,8.4,38.6c0.7,3.8,1.8,7.6,2.8,11.3c2.7,9.8,5.6,19.8,2.8,30.6
			C1986.5,2835.3,1986.1,2835.6,1985.6,2835.6z"/>
		<path class="st0" d="M1436.7,110.3c5.2,0,10.3,0.4,15.3,1.2c16.9,2.7,35.6,2.1,52.4,9.5c8,3.5,12.8,10.8,21,13.8
			c15.7,5.9,32.2,8.6,47.6,16c32.8,15.8,63.2,33.4,79.3,68.3c0.6,1.3,1.2,2.8,2.3,3.5c29.6,19.9,17.7,47.9,13.4,73.6
			c-1.5,9.1-4.3,18-4.6,27.5c-1.3,35.3,2.9,70.8-4.3,105.8c-0.8,4.3,0.1,7.1,4.7,7.1c0.3,0,0.6,0,0.9,0c0.5,0,1.1-0.1,1.6-0.1
			c11.2,0,15,8.1,16.8,17.5c7.1,37.2-0.5,73.2-11.7,108.2c-4,12.5-11.2,26-27.2,26c-2,0-4.2-0.2-6.5-0.7c-0.6-0.1-1.1-0.2-1.5-0.2
			c-4.5,0-5.5,4.4-6.7,8c-3,9.4-5.7,18.9-8.5,28.4c-4.7,16.4-10.8,32.5-21.9,45.6c-15,17.7-25.1,37.5-28.7,60.4
			c-4.2,26.4-14.1,51.8-15,78.9c-0.2,7.5,1.6,12.3,8,16.3c6.4,4.1,13.1,7.3,20.2,9.9c17.4,6.4,33.7,14.7,47.4,27.4
			c6,5.6,13,9.2,20.7,11.8c35.3,11.7,70.4,23.7,106.4,33.4c22.2,5.9,43,16.5,65.2,22.9c6.1,1.8,13.2,5.3,16.6,10.2
			c19.3,27.9,49.8,47.7,60.1,82.2c3.5,11.9,9.7,22.4,18.4,31.5c6.8,7.1,9.9,15.6,10.4,25.6c1.2,24.3,9.1,47.4,19,69
			c9.2,20.1,13.7,40.8,17.5,62c1.5,8.4,3.3,15.4,11.7,19.4c2.8,1.3,6.8,4.3,6.8,6.5c-0.1,22.8,20.2,32.8,30.3,49.1
			c4,6.4,8.9,12.1,8.8,20.3c0,3.1,0.6,7,2.5,9.3c37.5,45.8,48.7,102.3,63.8,157.2c12.2,44.1,23.1,88.5,21.5,134.8
			c-0.9,25.8-6,50.6-16.8,73.9c-8.7,18.8-22.1,31.1-43.1,31.1c-1.8,0-3.7-0.1-5.7-0.3c-4.6-0.5-9.2-0.7-13.8-0.7
			c-31.8,0-61,11.1-89,25.9c-21.1,11.2-42.5,20.2-66.6,20.2c-2.4,0-4.9-0.1-7.4-0.3c-0.7-0.1-1.4-0.1-2.1-0.1
			c-3.1,0-6.5,0.6-8.7,2.2c-18.9,14.3-40.9,23.3-61.1,35.4c-7.3,4.4-8.9,8.5-3.5,15.6c17.2,22.3,26.5,48.8,37.5,74.3
			c5.4,12.6,1.4,25.1-1.4,37.4c-2.4,10.6-6.2,20.8-8.3,31.4c-2.5,12.5-3.8,25,3.5,37c6.9,11.3,5,25.3,5.4,37.2
			c0.5,20,12.2,36.3,13.6,55.4c0.3,4.2,2.7,9.1,1.3,12.4c-7.4,17.2-0.5,32.8,3.9,48.9c3.1,11.3,5.2,22.6,2.6,34.8
			c-2.1,9.8,2.3,19.5,5.1,29c9.6,32.1,12.3,65.9,21.1,97.7c10.8,38.6,11.1,79.3,30.5,116.7c15.9,30.8,21.1,67.2,30.7,101.2
			c8.7,30.8,15.9,62,18.7,94.1c0.3,3.8,1.3,7.6,0.9,11.3c-7,56.6,11.4,109.8,21.9,164.1c2.7,13.7,9.4,26.9,5.7,41.4
			c-348.7-0.1-697.7-0.1-1046.6-0.1c-4-10.3-0.5-20.5,0.8-30.6c3.7-29,8.3-57.8,12.2-86.8c0.8-6,1.8-12.9-0.2-18.2
			c-8.7-22.9-3.6-46.1,0.3-68.2c6.8-38.3,8.6-77.9,25.4-114.1c5.6-12,2.7-24.8,1.2-37.5c-4.2-35.3-0.7-70.4,3.2-105.5
			c2.9-26.5,7.9-52.4,5.5-79.8c-5.1-59.4,5.7-117.4,25-173.7c5.8-16.9,2.5-33.6,2.3-50.4c-0.5-33.8,4.6-66.4,18-97.5
			c1.9-4.5,2.8-9.2,1.4-13.8c-5.5-17.7-4.1-37-16.3-53.3c-9.5-12.8-6.8-28.1,1.9-41.2c4.8-7.2,5.8-14,4.4-22.6
			c-5.6-35-8.6-70.1-1.6-105.4c5.6-27.9-0.9-55-4.8-82.5c-5.8-40.5-7.9-81.6-25.4-119.7c-3.3-7.2-5.5-14.5-11.5-20.5
			c-7.8-7.8-9-18.4-8.3-29c0.9-12.4-4.9-19.5-16.7-22.5c-8.2-2.1-16.3-4.9-23.6-9.3c-7-4.3-13.8-9.5-15.3-17.7
			c-2.6-14.3-5.7-28.9-5.1-43.2c1.7-39.4-5.1-77.8-11.1-116.3c-0.3-1.8-0.8-3.9-1.9-5.3c-26-31.5-16.8-67.9-10.7-101.7
			c8.6-47.6,14.9-95.4,22.1-143.1c8.9-59.2,39.2-105,92-134.9c32.8-18.5,65.3-37.3,99.4-53.6c24.9-11.9,48.2-27.3,72-41.4
			c4.1-2.4,7.9-4.8,12.9-5c3.2-0.1,6.9-0.5,9.5-2.2c15.9-10.1,31.5-19.9,48.9-28.2c25.6-12.1,35.2-38.2,35.4-66.4
			c0.1-15.5-1-31.3-5.4-46.1c-5.6-18.5-10.8-37.1-15-55.9c-1.2-5.1-2.6-8.4-6.1-8.4c-1.6,0-3.5,0.6-6.1,2c-2.7,1.5-5.3,2.1-7.7,2.1
			c-6.2,0-11.3-4.3-15.5-9.7c-9.2-12-17.4-24.5-20.7-39.8c-3.4-16.1-7.7-32.1-11.8-48c-2.2-8.8-2.1-17.8-1.6-26.7
			c1.2-21.5,9.3-32.9,24.1-32.9c6.5,0,14.4,2.2,23.5,6.8c-3.8-13.1-5.9-24.6-7.1-36.3c-1-10.4-2.1-20.8-0.3-31
			c5.9-32.5,5.3-65.8,11.5-98.1c4-20.7,8.6-40.7,21.1-59.5c10.8-16.1,25-24.4,39.8-34.6c24.6-16.9,54-25.2,76.4-45.9
			C1395.5,116.5,1416.6,110.3,1436.7,110.3 M1436.7,108.3c-22.8,0-43.6,7.7-58.7,21.6c-13,12-28.9,20-44.2,27.7
			c-10.7,5.4-21.8,11-32,18c-1.9,1.3-3.8,2.6-5.7,3.9c-12.9,8.7-25,16.9-34.7,31.3c-12.7,19.1-17.4,39.4-21.4,60.2
			c-3.2,16.6-4.6,33.8-6,50.3c-1.3,15.7-2.7,32-5.5,47.8c-1.8,10.1-0.8,20.5,0.2,30.5l0.1,1c1.1,11.2,3.1,21.6,6,32.4
			c-7.6-3.4-14.5-5.1-20.4-5.1c-11,0-24.5,6-26.1,34.8c-0.5,8.8-0.6,18.1,1.7,27.3c0.7,2.5,1.3,5,2,7.6c3.4,13.2,7,26.9,9.8,40.4
			c3.5,16,12.2,29,21.1,40.6c5.3,7,11.1,10.5,17.1,10.5c2.8,0,5.8-0.8,8.7-2.4c2.1-1.2,3.9-1.8,5.1-1.8c1.7,0,2.9,1.1,4.2,6.8
			c3.7,16.6,8.5,34.4,15,56c3.7,12.6,5.4,27.1,5.3,45.5c-0.2,22.2-6.2,51.4-34.3,64.6c-16.9,8-31.6,17.2-49.1,28.3
			c-2.3,1.5-6,1.8-8.5,1.9c-5.2,0.2-9.3,2.6-13.2,4.9l-0.7,0.4c-6.3,3.7-12.7,7.6-18.8,11.4c-17.1,10.4-34.8,21.2-53,30
			c-30,14.4-59.3,30.9-87.6,46.9c-4,2.2-7.9,4.5-11.9,6.7c-52.6,29.8-83.9,75.6-93,136.3c-2,13.5-4,27.1-5.9,40.4
			c-4.9,33.7-10,68.5-16.1,102.7c-0.4,2.4-0.9,4.8-1.3,7.2c-3,15.9-6,32.4-5.3,48.6c0.8,18.5,6.6,34.1,17.7,47.5
			c0.9,1.2,1.3,3.6,1.5,4.4c0.5,3.3,1,6.6,1.6,9.9c5.4,34.5,11.1,70.2,9.5,106c-0.5,13,1.9,26.2,4.3,39c0.3,1.6,0.6,3.1,0.9,4.7
			c1.6,9,9.1,14.7,16.2,19c6.6,4,14.3,7,24.2,9.5c11.2,2.8,16,9.3,15.2,20.4c-1.2,18.2,4.5,26.2,8.9,30.6c4.5,4.5,6.7,9.8,9.1,15.4
			c0.6,1.5,1.3,3,2,4.5c14,30.5,18.1,63.6,22.2,95.6c1,7.7,2,15.7,3.1,23.5c0.7,4.9,1.5,9.9,2.3,14.8c3.5,21.9,7.1,44.5,2.6,67.1
			c-7.5,37.9-3.4,74.9,1.6,106.1c1.4,8.6,0.2,14.7-4.1,21.2c-10.2,15.4-10.9,31.3-1.8,43.5c7.8,10.4,9.8,22,11.9,34.2
			c1.1,6.1,2.2,12.4,4.1,18.5c1.1,3.6,0.7,7.7-1.3,12.4c-12.8,29.6-18.7,61.8-18.2,98.3c0.1,4.3,0.3,8.7,0.6,12.9
			c0.7,12.7,1.4,24.6-2.7,36.8c-21.6,62.9-29.8,120-25.1,174.5c1.8,21.1-0.8,41.7-3.3,61.7c-0.7,5.8-1.5,11.8-2.2,17.7
			c-4.2,37.6-7.3,71.5-3.2,106c0.2,1.8,0.5,3.7,0.7,5.4c1.5,10.9,2.8,21.2-1.7,31c-12.7,27.4-17,57-21.1,85.7
			c-1.4,9.5-2.8,19.4-4.5,28.9c-0.3,1.5-0.5,3-0.8,4.5c-3.8,21.1-7.7,42.9,0.6,64.7c1.8,4.7,0.9,11.1,0.2,16.7l-0.1,0.5
			c-1.7,12.7-3.6,25.7-5.4,38.1c-2.3,15.9-4.7,32.4-6.8,48.7c-0.3,2.2-0.7,4.5-1.1,6.7c-1.4,8-2.9,16.3,0.4,24.8
			c0.3,0.8,1,1.3,1.9,1.3c343.1,0,697.9,0,1046.6,0.1c0.9,0,1.7-0.6,1.9-1.5c2.8-11-0.1-21.2-2.8-31.1c-1-3.7-2.1-7.5-2.8-11.2
			c-2.5-12.9-5.5-26-8.4-38.6c-9.2-40.3-18.8-82-13.5-124.9c0.3-2.7-0.1-5.4-0.4-8c-0.2-1.3-0.4-2.5-0.4-3.7
			c-2.4-28.1-8.2-57.2-18.8-94.5c-2.8-9.9-5.3-20.2-7.6-30.2c-5.8-24.3-11.8-49.4-23.2-71.4c-12.4-23.8-17-49.5-21.4-74.4
			c-2.5-13.8-5-28.1-8.9-41.9c-4.1-14.9-7-30.7-9.7-45.9c-3.1-17.1-6.3-34.8-11.4-51.9c-0.5-1.8-1.1-3.7-1.7-5.5
			c-2.4-7.4-4.9-15.1-3.3-22.5c2.8-12.9,0.4-24.8-2.6-35.7c-0.7-2.5-1.4-5-2.1-7.4c-4-13.5-7.8-26.3-1.9-40.2
			c1.2-2.7,0.4-5.9-0.3-8.9c-0.4-1.5-0.7-3-0.8-4.4c-0.7-9.3-3.8-18.1-6.8-26.5c-3.2-9.1-6.6-18.6-6.8-28.8
			c-0.1-2.4-0.1-4.9-0.1-7.5c0.1-9.9,0.1-21.2-5.6-30.7c-7.2-11.8-5.4-24.6-3.2-35.6c1.1-5.7,2.8-11.4,4.4-16.9
			c1.4-4.7,2.8-9.5,3.9-14.4c0.3-1.3,0.6-2.7,0.9-4c2.7-11.2,5.4-22.8,0.3-34.6c-2-4.6-3.9-9.3-5.8-13.8
			c-8.7-20.9-17.7-42.4-31.9-60.9c-2.2-2.8-3.1-5.1-2.7-6.8c0.4-1.9,2.2-3.7,5.7-5.8c7.4-4.4,15.2-8.5,22.7-12.5
			c13-6.8,26.5-13.9,38.5-23c1.5-1.1,4.2-1.8,7.5-1.8c0.7,0,1.3,0,2,0.1c2.5,0.2,5.1,0.3,7.6,0.3c25.3,0,47.4-9.8,67.5-20.4
			c33.6-17.8,60.8-25.7,88.1-25.7c4.5,0,9.1,0.2,13.6,0.7c2,0.2,4,0.3,5.9,0.3c10.5,0,19.7-3,27.4-8.9c6.9-5.3,12.8-13.2,17.6-23.3
			c10.5-22.6,16-47,17-74.7c1.6-47.1-9.8-92.7-21.6-135.4c-1.9-7.1-3.9-14.3-5.7-21.3c-12.6-47.4-25.5-96.4-58.5-136.6
			c-1.3-1.6-2-4.6-2-8c0.1-7.4-3.5-12.9-7-18.2c-0.7-1-1.4-2.1-2.1-3.2c-3.5-5.6-8.1-10.5-12.6-15.2c-9-9.5-17.5-18.4-17.4-32.9
			c0-3.8-5.7-7.3-8-8.3c-7.5-3.6-9.1-9.7-10.6-17.9c-4.2-23.6-8.9-43.3-17.7-62.5c-11.8-25.8-17.8-47.5-18.8-68.3
			c-0.5-11-4.1-19.8-11-26.9c-8.5-8.9-14.6-19.2-17.9-30.7c-6.8-22.7-22.2-39.2-37.1-55.2c-8.1-8.7-16.5-17.7-23.3-27.5
			c-3.1-4.5-9.8-8.6-17.7-11c-10.5-3-20.8-7.1-30.8-11c-11.1-4.3-22.7-8.8-34.4-12c-31.5-8.5-62.9-18.9-93.2-29
			c-4.4-1.5-8.7-2.9-13.1-4.3c-8.3-2.8-14.7-6.4-20-11.4c-12.4-11.5-27.6-20.3-48.1-27.8c-7.3-2.7-13.8-5.9-19.8-9.7
			c-5.4-3.4-7.3-7.2-7.1-14.6c0.5-16.4,4.5-32.5,8.4-48.1c2.4-9.9,5-20.2,6.6-30.5c3.4-21.6,12.6-41,28.3-59.4
			c12-14.2,18-31.4,22.3-46.3c0.6-2.2,1.3-4.4,1.9-6.6c2.1-7.1,4.2-14.5,6.5-21.7c0.1-0.3,0.2-0.6,0.3-0.9c1.2-3.8,2.1-5.7,4.5-5.7
			c0.4,0,0.7,0,1.2,0.1c2.4,0.5,4.7,0.7,6.9,0.7c13.7,0,23.2-9,29.1-27.4c10.1-31.6,19.4-69.2,11.8-109.2
			c-1.6-8.2-5.3-19.1-18.8-19.1c-0.6,0-1.1,0-1.7,0.1c-0.3,0-0.6,0-0.8,0c-0.9,0-2-0.1-2.5-0.7c-0.5-0.6-0.6-2.1-0.2-4
			c4.9-23.8,4.6-48.2,4.2-71.7c-0.2-11.3-0.3-23,0.1-34.4c0.2-6.1,1.5-12.1,2.7-18c0.7-3,1.3-6.2,1.8-9.3c0.6-3.9,1.5-7.9,2.3-11.7
			c2.3-11.1,4.7-22.7,3.3-33.5c-1.6-12.5-8.1-22.4-19.9-30.3c0,0,0,0,0,0c-0.5-0.3-1-1.4-1.4-2.3l-0.2-0.4
			c-16.8-36.3-48.8-54.1-80.2-69.3c-9.3-4.5-19.1-7.3-28.5-10c-6.4-1.8-12.9-3.7-19.2-6.1c-4-1.5-7.2-4-10.5-6.8
			c-3.1-2.6-6.4-5.2-10.4-7c-12.1-5.3-25-6.6-37.5-7.8c-5.3-0.5-10.4-1-15.4-1.8C1447.2,108.7,1441.9,108.3,1436.7,108.3
			L1436.7,108.3z"/>
	</g>
</g>
</svg>
