<?xml version="1.0" encoding="utf-8"?>
<!-- Generator: Adobe Illustrator 23.1.1, SVG Export Plug-In . SVG Version: 6.00 Build 0)  -->
<svg version="1.1" id="Layer_1" xmlns="http://www.w3.org/2000/svg" xmlns:xlink="http://www.w3.org/1999/xlink" x="0px" y="0px"
	 viewBox="0 0 2834.6 2834.6" style="enable-background:new 0 0 2834.6 2834.6;" xml:space="preserve">
<style type="text/css">
	.st0{fill:#E61F36;}
	.st1{fill:none;stroke:#E61F36;stroke-width:2;stroke-linejoin:round;stroke-miterlimit:10;}
</style>
<g>
	<g>
		<g>
			<path class="st0" d="M1533.1,181.3c19.8,0,35.6,2.7,49.8,8.5l2,0.8c10.9,4.4,21.2,8.6,29.5,17.7c7,7.7,16.3,12.9,28.4,16
				c27.6,7,60.3,20.4,68.1,62.3c0.2,0.9,0.3,1.9,0.4,3.1c0.9,7.3,2.3,13.9,9,13.9c1.9,0,4.2-0.6,6.9-1.6c0.3-0.1,0.6-0.2,1-0.2
				c0.9,0,1.8,0.5,2.5,1.3c0.9,1.1,1.4,2.5,1.2,3.6c-1.6,9.6,4.3,14.1,10.5,19c1.4,1,2.7,2.1,4.1,3.3l0.4,0.3
				c2.8,2.4,6.2,5.3,5.3,10c-1.6,8.1,1,15,3.8,22.4c0.9,2.5,1.9,5.1,2.7,7.7c9.2,30.6,8,62.4,6.8,93.2c-0.1,3.7-0.3,7.4-0.4,11
				c-0.1,3.7-0.2,7.3-0.3,11c-0.6,22.7-1.3,46.2-7.6,68.7c-3.5,12.5-5.7,25.4-7.8,37.9c-1.6,9.3-3.2,19-5.3,28.4
				c-0.9,3.9-0.9,6,0,7.1c0.7,0.9,2.2,1.3,4.5,1.3c0.7,0,1.4,0,2.3-0.1c0.7-0.1,1.5-0.1,2.2-0.1c10.5,0,17.5,7,18.8,18.6
				c0.2,1.6,0.4,3.3,0.5,4.9c2.7,24.1,5.6,49-5.8,73.3c-5.7,12.1-9.6,25.4-13.5,38.1c-1.4,4.5-2.8,9.2-4.2,13.8
				c-3.4,10.6-8.7,21-16.7,32.9c-7.5,11-16.6,16.3-28.8,16.8c-12.6,0.4-21.7,5.9-27.9,16.7c-26.2,45.8-56,97.8-61.1,157.4l-0.1,0.9
				c-0.7,8.4-1.5,17.1-1.7,25.7c0,1-0.1,2-0.1,3c-0.3,6.7-0.6,13.7,3,17.4c1.9,2,4.9,3,9.1,3c1.6,0,3.4-0.1,5.3-0.4
				c0.2,0,0.5-0.1,0.7-0.1c2.4,0,5,1.8,7.3,3.3c0.5,0.3,1,0.7,1.5,1c16.7,10.7,33,19.4,49.6,26.4l1,0.4c3.3,1.4,7.1,3,8.9,5.8
				c8.3,12.8,21,20,33.4,26.9c6.7,3.8,13.6,7.7,19.7,12.4c9.7,7.5,20.7,13.3,31.3,18.9c13.2,7,26.8,14.1,38.3,24.8
				c3.8,3.5,9.2,4.8,15,6.3c9.8,2.4,20,4.9,22.8,18.6c9.5,1.1,18.1,5.1,26.5,9c7.8,3.6,15.1,7,23.1,8.3
				c25.5,4.2,43.7,19.8,61.4,34.9l1.5,1.3c4.3,3.6,8.4,7.7,12.3,11.6c5.2,5.2,10.6,10.5,16.5,15c27,20.7,46.6,48.4,59.7,84.6
				c16.5,45.3,21.7,91.9,24.3,127.4c1.2,16.6-1.9,33.2-5,49.3c-1.7,9.1-3.5,18.4-4.5,27.7c-1.3,12.5-1.8,22.2,3.7,32.2
				c4.5,8.1,6.8,20.3-1.7,27.7c-13,11.4-14,26.2-13.9,41.6c0,7.6-0.7,15.3-1.3,22.8c-1.3,14.4-2.6,29.4,1.3,44.3
				c2.2,8.4,0.1,17.3-1.9,25.9c-1.1,4.8-2.3,9.8-2.7,14.7c-7.5,89.7-30,173.6-66.7,249.3c-6.9,14.2-13.8,28.3-20.7,42.5
				c-19.6,40.2-39.9,81.7-59.1,122.9c-13.9,29.7-32.6,52.3-57.3,69c-5.1,3.5-9.9,7.8-10.1,16.3c-1.6,69.8-13.6,139.4-25.3,206.8
				l-1,6c-2.1,11.9-4.4,24.5-8.5,37.2c-3.2,9.9-0.8,19.9,1.5,29.6c1.1,4.7,2.3,9.5,2.8,14.4c5.8,51.9,6.7,99,3,143.9
				c-0.7,7.7-1.1,15.6-1.5,23.2c-0.5,9.5-1.1,19.2-2,28.8c-1.1,11.6-4.2,24.5-18.3,32.4c-14.1,7.9-19.5,20.8-16.3,38.4
				c0.1,0.3,0,0.6-0.2,0.8c-0.2,0.2-0.5,0.4-0.8,0.4H650.4v-0.4c-0.3,0-0.7-0.2-0.8-0.5c-0.2-0.3-0.2-0.6-0.1-1
				c9-19.7,9.9-40.8,9.7-58.8v-0.3c-0.1-8-0.2-16.3,3.3-23.7c24.8-51.9,38.3-108.4,51.3-163c1-4.1,2-8.2,2.9-12.3
				c6.2-26,16.3-50.9,25.9-75.1c5.1-12.8,10.4-26,15.1-39.2c5-14.2,6.1-29.1,7.2-43.6c0.9-12.7,1.9-25.8,5.6-38.3
				c5.9-20.1,5.8-40.8,5.7-60.8c-0.1-14.4-0.1-29.4,2-44c3.5-23.6,9.8-46.1,18.1-72.6c3-9.6,1.3-14.1-7-17.9
				c-55.3-25.9-101.9-45.9-146.6-62.8c-9.2-3.5-19-5.6-30-6.5c-32.8-2.7-52.6-19.6-60.4-51.7c-18-73.8-19.3-149.8-4.1-225.7
				c1.3-6.5,2.6-13,3.9-19.6c6.3-31.7,12.9-64.5,20.5-96.5c2.8-11.9,4.5-24.3,6-36.3c2.2-17,4.5-34.5,10.3-51.1
				c1.7-5,3.5-10.1,5.2-15.1c7.9-23.3,16.1-47.4,27.9-70.1c3.3-6.4,6.8-12.8,10.1-19c14.9-27.8,30.4-56.5,37.8-88.2
				c1.2-5.2,0.9-9.6-1-14.4c-4-10-2.5-19.7,4.4-28.9c20.7-27.2,31.6-60.7,40.3-87.6c12.9-39.6,33.1-76.2,61.9-111.9
				c19.5-24.1,43.4-42.6,66.2-59.4c4.7-3.5,9.7-5.9,15.4-7.6c2.4-0.7,4.7-1.3,7.1-1.9c13.3-3.6,25.8-6.9,36.9-16.9
				c6.2-5.6,14.4-8.7,23.1-8.7c5.7,0,11.3,1.3,16.7,3.9c4.7,2.3,10,3.3,16.5,3.3c3.8,0,7.7-0.3,11.4-0.7c3.8-0.3,7.7-0.7,11.6-0.7
				h0.5c4.7,0,6.7-5,8.4-9.1c4.9-11.9,12.5-14.4,18-14.4c3.8,0,7.9,1.2,12,3.5c6.8,3.7,13.3,5.6,19.8,5.6c9.1,0,18.2-3.6,28.6-11.2
				c2.6-1.9,7-4.1,11.1-4.1c0.5,0,1,0,1.4,0.1c2.5,0.4,5.1,0.6,7.7,0.6c13.8,0,26.6-5.5,39-10.8l1.4-0.6c0.7-0.3,1.4-0.6,2.1-0.8
				c1.9-0.7,4-1.4,4.5-2.5c10.1-21.3,29.7-22.6,47.1-23.7c4.5-0.3,8.7-0.6,12.7-1.2l2.6-0.4c32.1-4.5,32.7-4.6,33.6-38.5
				c0.3-12.2,0.2-24.7,0.1-36.7c-0.2-22.2-0.4-45.2,2.2-67.8c0.6-5-1.4-9.4-3.6-14.1l-0.1-0.2c-15.3-33.6-25.9-65.2-32.3-96.4
				c-1.1-5.4-3.5-8.1-8.9-10c-26.2-9.1-26.7-9.8-25.5-37.6l0.1-1.5c1.4-33,0.1-59.8-4-84.3c-2.9-17.1,1.3-33.1,5.4-48.7
				c1.9-7.3,3.9-14.8,5.1-22.2c0.4-2.6,2.7-6.3,5.4-7.4c14.3-5.9,16.3-19,18.3-31.6c0.1-0.9,0.3-1.9,0.4-2.8
				c7.4-46.5,16.1-87.1,26.6-124.1c1.1-3.7,2.1-7.5,3.2-11.3c10.5-37.4,21.3-76,46-108.3c6.6-8.6,15-15.3,23.1-21.8
				c3.4-2.8,7-5.6,10.3-8.6c0.9-0.8,1.8-1.5,2.7-2.1c2.8-2.1,5.5-4.1,5.6-7.6c0.1-19.4,14.6-28.3,27.1-34c3-1.4,6.1-2.9,9.1-4.3
				c11.4-5.6,23.2-11.4,37.7-11.4c1.6,0,3.3,0.1,4.9,0.2c-3.5-3.3-5-5.5-4.5-7.5c0.5-1.9,2.9-3.1,8.1-4l7.4-1.3
				c27-4.9,55-9.9,82.8-10.7c6.8-0.2,13.7-0.6,20.4-1.1C1513.5,181.9,1523.4,181.3,1533.1,181.3 M1533.1,179.3
				c-9.4,0-18.8,0.5-29.2,1.2c-7.4,0.6-14.1,0.9-20.3,1.1c-28.5,0.8-57.5,6.1-83.1,10.7l-7.4,1.3c-4.5,0.8-8.8,2-9.7,5.5
				c-0.5,2,0.2,3.8,1.7,5.8c0,0-0.1,0-0.1,0c-15,0-27,5.9-38.6,11.6c-1.5,0.7-3,1.4-4.5,2.1c-1.5,0.7-3,1.4-4.5,2.1
				c-13.1,6-28.1,15.4-28.3,35.8c-0.1,2.3-1.8,3.8-4.7,6l0,0c-1,0.6-1.9,1.4-2.9,2.2c-2.4,2.2-5,4.3-7.5,6.3
				c-0.9,0.8-1.9,1.5-2.8,2.3l-0.3,0.2c-8.1,6.5-16.5,13.2-23.1,21.9c-24.9,32.5-35.8,71.3-46.3,108.7l-0.1,0.3
				c-0.5,1.7-0.9,3.3-1.4,5c-0.6,2.1-1.2,4.2-1.8,6.3c-10.5,37.1-19.2,77.8-26.7,124.4c0,0,0,0.1,0,0.1c0,0.4-0.1,0.9-0.2,1.3
				c-0.1,0.5-0.2,1-0.2,1.4l0,0.2c-2,12.6-3.9,24.4-17.1,29.8c-3.4,1.4-6.1,5.7-6.6,8.9c-1.1,6.9-2.9,13.9-4.7,20.7l-0.3,1.3
				c-4.1,15.7-8.4,32-5.4,49.5c4.1,24.5,5.4,51.2,4,83.9l-0.1,1.5c-1.2,28.7-0.2,30.2,26.8,39.6c4.7,1.7,6.6,3.8,7.6,8.5
				c6.4,31.3,17,63,32.4,96.8c0,0,0,0,0,0.1l0.1,0.2c2,4.4,4,8.5,3.4,13c-2.6,22.8-2.4,45.8-2.2,68.1c0.1,11.4,0.2,24.3-0.1,36.6
				c-0.4,16.6-0.8,24.7-4.6,29c-3.8,4.3-11.6,5.4-27.3,7.6l-2.6,0.4c-3.8,0.6-7.8,0.9-12.5,1.2c-17,1.1-38.1,2.4-48.8,24.8
				c-0.4,0.4-2,1-3,1.4l-0.3,0.1c-0.8,0.2-1.5,0.6-2.3,0.9l-1.4,0.6l-0.2,0.1c-12.1,5.2-24.7,10.6-38,10.6c-2.5,0-5-0.2-7.3-0.6
				c-0.6-0.1-1.2-0.1-1.8-0.1c-4.5,0-9.3,2.3-12.3,4.5c-10.1,7.4-18.8,10.8-27.4,10.8c-6.1,0-12.2-1.8-18.8-5.4
				c-4.4-2.4-8.8-3.7-13-3.7c-6.1,0-14.5,2.7-19.8,15.6l-0.1,0.2c-1.9,4.5-3.4,7.7-6.5,7.7h-0.5c-3.3,0-6.5,0.3-9.6,0.5
				c-0.7,0.1-1.4,0.1-2.1,0.2c0,0,0,0-0.1,0c-4.3,0.5-7.9,0.7-11.2,0.7c-6.3,0-11.3-1-15.6-3.1c-5.7-2.7-11.6-4.1-17.6-4.1
				c-9.2,0-17.9,3.3-24.4,9.2c-10.6,9.6-22.8,12.8-35.6,16.3l-0.5,0.1c-2.9,0.7-5,1.3-7.1,1.9c-6.1,1.8-11.3,4.4-16,7.9
				c-22.8,16.8-46.8,35.3-66.6,59.7c-28.9,35.8-49.2,72.6-62.2,112.5c-8.6,26.7-19.4,59.9-40,87c-7.4,9.8-8.9,20.2-4.7,30.9
				c1.8,4.4,2,8.4,0.9,13.2c-7.3,31.1-22.4,59.3-37.1,86.7l-0.5,1c-1,2-2.1,3.9-3.2,5.9c-2.3,4.3-4.7,8.7-6.9,13.1
				c-12,23-20.1,47.1-28,70.4c-0.8,2.5-1.7,5-2.6,7.5c-0.9,2.5-1.8,5.1-2.6,7.6c-5.9,16.9-8.2,34.5-10.4,51.5
				c-1.4,11.1-3.1,24-6,36.1c-7.5,31.5-14,63.7-20.5,96.6c-1.3,6.6-2.6,13.1-3.9,19.6c-15.3,76.4-13.9,152.6,4.1,226.6
				c4,16.4,11.2,29.1,21.5,37.9c10.3,8.8,24,13.9,40.7,15.3c10.9,0.9,20.5,3,29.5,6.4c44.2,16.7,90.8,36.7,146.5,62.7
				c7.3,3.4,8.6,6.8,5.9,15.5c-8.4,26.8-14.7,49.4-18.2,72.9c-2.1,14.3-2.1,28.5-2,44.3c0.1,19.9,0.2,40.4-5.6,60.2
				c-3.9,13-4.8,26.7-5.7,38.7l0,0.3c-1.1,14.2-2.2,28.9-7.1,42.8c-4.4,12.3-9.3,24.7-14.1,36.7l-1,2.4l-1.4,3.5
				c-9.2,23.1-18.6,47-24.6,71.8c-0.9,4.1-1.9,8.3-2.9,12.3c-13,54.4-26.4,110.7-51.2,162.6c-3.7,7.8-3.6,16.4-3.5,24.6v0.3
				c0.2,17.9-0.8,38.8-9.5,58c-0.1,0.1-0.1,0.2-0.1,0.3c-0.1,0.3-0.3,1.3,0.3,2.4c0.2,0.4,0.5,0.8,0.9,1c0.4,0.6,1,1,1.7,1h1127.8
				c1.1,0,1.8-0.6,2.2-1c0.7-0.7,1-1.7,0.7-2.7c-3-16.9,2-28.7,15.3-36.2c15.1-8.4,18.2-22.6,19.3-34c1-10.5,1.6-20.9,2-28.9
				l0.1-1.1c0.4-7.2,0.8-14.7,1.4-22c3.7-45.5,2.8-92.7-3-144.3c-0.5-4.5-1.5-9-2.5-13.3l-0.3-1.3l0-0.2c-2.2-9.4-4.5-19.1-1.5-28.4
				c4-12.3,6.2-24.3,8.6-37.5l1-6c11.7-67.1,23.7-136.6,25.3-207.1c0.2-7.1,3.7-10.9,9.2-14.7c24.9-16.8,43.9-39.7,58-69.8
				c18-38.5,36.9-77.4,55.3-115l3.8-7.8c3.5-7.1,6.9-14.2,10.4-21.2c3.5-7.1,6.9-14.2,10.4-21.3c36.9-76.1,59.4-160.2,66.9-250
				c0.4-4.4,1.4-9,2.4-13.5l0.2-0.9l0-0.2c2-8.8,4.2-17.9,1.8-26.7c-3.9-14.7-2.5-29.4-1.2-43.6l0.2-2.5c0.5-6.7,1.1-13.7,1.1-20.5
				c-0.1-14.9,0.8-29.2,13.2-40.1c9.4-8.2,7-21.4,2.1-30.2c-5.2-9.5-4.7-18.8-3.5-31c0.9-8.5,2.5-17.2,4.1-25.5l0.4-2
				c2.9-15.3,6.3-32.6,5-49.8c-2.6-35.5-7.7-82.1-24.4-127.9c-13.2-36.5-33-64.5-60.4-85.5c-5.7-4.4-11-9.5-16.3-14.8
				c-4-4-8.1-8.1-12.4-11.7l-1.5-1.3l-0.2-0.2c-17.8-15.2-36.2-30.9-62.2-35.2c-7.6-1.2-14.8-4.5-22.3-8l-0.3-0.1l0,0
				c-8.1-3.8-16.4-7.6-25.7-9c-3.5-13.7-14.3-16.4-24-18.7l-0.6-0.2c-5.5-1.4-10.2-2.6-13.5-5.7c-11.4-10.6-24.8-17.7-37.8-24.6
				l-0.9-0.5l-0.2-0.1c-10.5-5.5-21.3-11.3-30.9-18.6c-6.1-4.7-13.1-8.7-19.7-12.4l-0.2-0.1c-11.5-6.4-24.5-13.7-32.7-26.2
				c-2.1-3.3-6.2-5-9.7-6.5l-0.1,0l-1-0.4c-16.4-6.9-32.5-15.5-49.3-26.2c0,0,0,0-0.1,0c-0.2-0.1-0.4-0.3-0.6-0.4
				c-0.3-0.2-0.5-0.4-0.8-0.6l-0.4-0.2c-2.4-1.6-5.1-3.4-8-3.4c-0.3,0-0.6,0.1-0.7,0.1l-0.1,0c-0.1,0-0.1,0-0.2,0
				c-1.6,0.2-3.3,0.4-5,0.4c-3.6,0-6.1-0.8-7.7-2.4c-3-3.1-2.7-9.6-2.5-15.9c0,0,0-0.1,0-0.1c0-0.4,0-0.9,0-1.4c0-0.5,0.1-1,0.1-1.6
				c0.2-7.5,0.8-15.2,1.5-22.7l0.2-2.8l0.1-0.9c5.1-59.1,34.6-110.8,60.7-156.4l0.1-0.3c5.8-10.2,14.4-15.3,26.2-15.7
				c12.9-0.5,22.5-6.1,30.4-17.7c8.1-12.1,13.5-22.7,17-33.4c0.5-1.6,0.9-3.1,1.4-4.7c0.9-3,1.9-6.2,2.8-9.2l0.9-3
				c3.6-11.7,7.3-23.8,12.5-34.8c11.6-24.6,8.8-49.6,6-73.8l-0.1-0.5c-0.1-1.7-0.3-3.5-0.5-5c-1.4-12.5-9.4-20.4-20.8-20.4
				c-0.8,0-1.6,0-2.5,0.1c-0.8,0.1-1.4,0.1-2,0.1c-2.5,0-2.9-0.5-2.9-0.5c-0.2-0.2-0.6-1.2,0.4-5.4c1.9-8.4,3.4-17.1,4.8-25.4
				l0.5-3.1c2-11.7,4.2-25,7.8-37.7c6.5-23.1,7.1-47.6,7.7-69.2l0.1-5.5l0.2-5.5c0-1.7,0.1-3.6,0.2-5.3c0.1-1.9,0.2-3.8,0.2-5.7
				c1.2-30.9,2.4-62.8-6.9-93.8c-0.6-2-1.4-4-2.1-6c-0.2-0.6-0.4-1.2-0.7-1.8c-2.7-7.1-5.2-13.8-3.7-21.3c1.1-5.8-3-9.3-5.9-11.9
				c0,0-0.1-0.1-0.1-0.1l-0.3-0.3c-1.4-1.2-2.7-2.3-4.2-3.3l-0.2-0.2c-6.1-4.8-10.9-8.6-9.5-16.9c0.3-1.6-0.3-3.6-1.6-5.2
				c0,0,0,0,0-0.1c-1.1-1.3-2.6-2-4-2c-0.7,0-1.3,0.2-1.6,0.3c0,0,0,0-0.1,0c-2.7,1-4.7,1.5-6.2,1.5c-4.6,0-6-4.3-7-12.1
				c-0.1-1.1-0.2-2.2-0.4-3.3c-8-43-41.4-56.7-69.6-63.8c-11.8-3-20.7-8.1-27.4-15.4c-8.7-9.5-19.6-13.9-30.2-18.2l-2-0.8
				C1569.2,182,1553.1,179.3,1533.1,179.3L1533.1,179.3z"/>
		</g>
		<path class="st1" d="M1533.3,182.2c16.6,0,33.1,1.8,49.4,8.4c11.4,4.6,22.5,8.8,31.2,18.3c7.6,8.4,17.3,13.4,28.9,16.3
			c33,8.4,60.3,23.4,67.4,61.5c1,5.3,0.7,17.8,10.4,17.8c2,0,4.4-0.5,7.3-1.7c0.2-0.1,0.4-0.1,0.6-0.1c1.5,0,3,2.3,2.7,3.8
			c-2,12.3,7.7,16.9,14.9,23.1c2.8,2.4,6.2,5.1,5.3,9.4c-2.2,11.2,3.4,20.4,6.5,30.5c10.2,34,7.5,69.1,6.3,103.9
			c-0.9,26.6-0.6,53.5-7.9,79.4c-6.1,21.8-8.1,44.4-13.2,66.4c-1.6,6.7-0.9,9.7,5.4,9.7c0.7,0,1.5,0,2.4-0.1
			c0.7-0.1,1.4-0.1,2.1-0.1c10.8,0,16.7,7.6,17.8,17.7c2.9,26.1,6.8,52-5.2,77.6c-7.7,16.5-12.2,34.6-17.7,52
			c-3.8,11.8-9.6,22.4-16.5,32.6c-6.8,10.1-15.6,15.9-28,16.3c-12.6,0.4-22.2,5.8-28.7,17.2c-28.3,49.5-56.2,99.1-61.2,157.8
			c-0.8,8.9-1.5,17.8-1.8,26.7c-0.3,11.7-2.3,24.4,12.9,24.4c1.6,0,3.4-0.1,5.4-0.4c0.2,0,0.4,0,0.5,0c2.6,0,5.7,2.5,8.2,4.1
			c15.9,10.2,32.4,19.1,49.8,26.5c3.4,1.4,7.6,3,9.4,5.8c13,20,36,26.1,53.3,39.6c21.9,16.9,48.9,24.5,69.5,43.6
			c10.7,9.9,33.7,3.2,37.6,25c18.2,1.9,33,14.5,50.3,17.4c25.9,4.3,44.1,20.4,62.4,36c9.8,8.4,18.4,18.7,28.9,26.7
			c28.6,21.9,47.2,50.5,59.4,84.1c15,41.2,21,84,24.3,127.1c1.9,25.9-6.8,51.1-9.5,76.8c-1.2,11.6-2.1,22.1,3.8,32.7
			c4.9,8.8,6.1,19.8-1.5,26.4c-13.6,11.9-14.4,27.3-14.3,42.4c0.1,22.4-6,44.5,0,67.3c3.4,12.8-3.5,26.6-4.7,40.2
			c-7.3,86.9-28.4,170.2-66.7,248.9c-26.7,55.1-53.9,109.9-79.8,165.4c-13.1,28.1-31.3,51.2-57,68.6c-6.1,4.1-10.3,8.8-10.5,17.1
			c-1.6,71.8-14.1,142.2-26.3,212.6c-2.2,12.5-4.5,24.9-8.5,37.1c-4.8,14.9,2.6,29.6,4.3,44.4c5.3,47.9,7,95.6,3,143.7
			c-1.5,17.3-1.9,34.7-3.6,52.1c-1.3,13.3-5.1,24.5-17.8,31.6c-15.4,8.6-19.9,22.6-16.8,39.5c-375.9,0-751.7,0-1127.6,0
			c8.6-18.8,10.1-38.9,9.8-59.2c-0.1-8.1-0.2-16.3,3.2-23.6c26.6-55.9,40-115.9,54.3-175.5c9.5-39.7,27.5-76.1,41-114.2
			c9.5-26.8,5.1-55.4,12.8-81.9c10.1-34.7,2.6-70.1,7.7-104.9c3.7-24.8,10.6-48.7,18.1-72.5c2.9-9.2,1.9-14.7-7.5-19.2
			c-48.2-22.6-96.9-44-146.6-62.8c-9.7-3.7-19.8-5.7-30.2-6.6c-32.2-2.6-51.8-19.4-59.5-50.9c-18.2-74.8-19.2-149.8-4.1-225.3
			c7.8-38.8,15.2-77.5,24.4-116c6.8-28.7,6.5-59,16.3-87.3c10-28.7,18.7-57.7,33-85c18.1-34.7,38.8-68.6,48-107.4
			c1.3-5.5,0.9-10.1-1-15c-4.1-10.2-2.1-19.5,4.3-27.9c20-26.3,30.6-57.5,40.5-87.9c13.5-41.6,34.6-77.9,61.7-111.5
			c18.9-23.4,42.1-41.6,66-59.2c4.6-3.4,9.6-5.8,15.1-7.4c15.5-4.4,31.1-7.1,44.4-19.1c6-5.4,14-8.4,22.4-8.4
			c5.4,0,10.9,1.2,16.3,3.8c5.6,2.7,11.2,3.4,16.9,3.4c7.7,0,15.4-1.4,23-1.4c0.2,0,0.3,0,0.5,0c0,0,0,0,0.1,0
			c5.2,0,7.5-5.5,9.2-9.7c3.8-9.4,10-13.8,17.1-13.8c3.6,0,7.6,1.1,11.6,3.3c7.2,3.9,13.9,5.7,20.3,5.7c10.2,0,19.7-4.4,29.2-11.4
			c2.8-2.1,7-3.9,10.5-3.9c0.4,0,0.9,0,1.3,0.1c2.7,0.4,5.3,0.6,7.8,0.6c14.6,0,27.6-5.9,40.8-11.5c2.5-1.1,6.2-1.9,7.2-3.8
			c12.3-25.9,38.4-21.4,59-24.3c34.6-4.9,36.1-4.2,37.1-39.9c0.9-34.8-1.6-69.7,2.3-104.4c0.6-5.4-1.6-10.1-3.8-14.9
			c-14.1-31-25.4-62.9-32.3-96.2c-1.2-5.8-4-8.7-9.6-10.7c-26.5-9.2-26-9.4-24.8-38.2c1.2-28.2,0.7-56.5-4.1-84.5
			c-4.2-24.8,6.7-47.1,10.5-70.6c0.4-2.5,2.6-5.8,4.8-6.7c15.9-6.6,17.2-21.8,19.3-35.2c6.7-41.8,15.1-83.4,26.6-123.9
			c11.7-41.3,21.9-83.9,49-119.2c9.2-12.1,22-20.3,33.3-30.2c3.5-3.1,8.6-5.2,8.6-10.5c0.1-18.2,12.9-26.9,26.6-33
			c14.5-6.5,28.3-15.7,46.4-15.7c2.5,0,5.2,0.2,7.9,0.6c-7.9-7-9.8-10,0.8-11.9c29.9-5.3,59.8-11.1,90.1-12.1
			C1500.3,184,1516.8,182.2,1533.3,182.2 M1533.3,180.2c-9.7,0-19.6,0.6-29.1,1.2c-6.7,0.4-13.6,0.8-20.4,1.1
			c-27.9,0.9-55.9,5.9-83,10.8c-2.5,0.4-4.9,0.9-7.4,1.3c-4.1,0.7-8,1.8-8.9,4.7c-0.6,2.1,0.6,4.2,2.8,6.6c-0.8,0-1.5,0-2.3,0
			c-14.7,0-26.6,5.9-38.1,11.5c-3,1.5-6,3-9.1,4.3c-12.9,5.8-27.6,14.9-27.7,34.9c0,3.1-2.4,4.8-5.2,6.8c-0.9,0.7-1.9,1.4-2.8,2.2
			c-3.3,2.9-6.9,5.8-10.3,8.5c-8.2,6.6-16.6,13.3-23.2,22c-24.8,32.4-35.7,71.2-46.1,108.6c-1.1,3.8-2.1,7.5-3.2,11.2
			c-10.5,37-19.2,77.6-26.7,124.2c-0.1,0.9-0.3,1.9-0.4,2.8c-1.9,12.3-3.9,25.1-17.7,30.8c-3,1.2-5.5,5.2-6,8.2
			c-1.2,7.4-3.2,14.9-5.1,22.1c-4.1,15.7-8.4,31.9-5.4,49.1c4.1,24.4,5.4,51.1,4,84.1l-0.1,1.5c-0.6,14.1-0.9,21.2,2.6,26.4
			c3.5,5.3,10.7,7.8,23.6,12.3c5,1.7,7.2,4.2,8.3,9.2c6.5,31.3,17.1,62.9,32.4,96.6l0.1,0.2c2.1,4.6,4,8.9,3.5,13.6
			c-2.6,22.7-2.4,45.7-2.2,68c0.1,12,0.2,24.5-0.1,36.7c-0.5,17.4-1.1,25.4-5.1,29.8s-12.4,5.6-27.7,7.8l-2.6,0.4
			c-4,0.6-8.2,0.8-12.6,1.1c-17.6,1.2-37.6,2.5-47.9,24.3c-0.3,0.7-2.5,1.5-4,2c-0.7,0.3-1.5,0.5-2.2,0.8l-1.4,0.6
			c-12.8,5.5-25,10.8-38.6,10.8c-2.5,0-5-0.2-7.5-0.6c-0.5-0.1-1-0.1-1.6-0.1c-4.3,0-9,2.3-11.7,4.3c-10.2,7.5-19.1,11-28,11
			c-6.3,0-12.7-1.8-19.3-5.4c-4.3-2.4-8.6-3.6-12.5-3.6c-8.3,0-15,5.3-18.9,15.1c-1.9,4.6-3.7,8.5-7.4,8.5h-0.5
			c-3.9,0-7.9,0.4-11.7,0.7c-3.7,0.3-7.6,0.7-11.4,0.7c-6.3,0-11.4-1-16.1-3.2c-5.5-2.6-11.3-4-17.2-4c-9,0-17.4,3.2-23.8,8.9
			c-10.9,9.8-23.3,13.2-36.5,16.7c-2.3,0.6-4.7,1.3-7.1,1.9c-5.8,1.7-11,4.2-15.8,7.7c-22.9,16.9-46.8,35.4-66.3,59.6
			c-28.8,35.7-49.1,72.4-62,112.2c-8.7,26.9-19.6,60.3-40.2,87.4c-7.2,9.5-8.7,19.5-4.6,29.9c1.8,4.6,2.1,8.8,1,13.8
			c-7.4,31.5-22.8,60.2-37.7,87.9c-3.3,6.2-6.8,12.7-10.1,19c-11.8,22.7-20,46.9-27.9,70.2c-1.7,4.9-3.4,10.1-5.2,15.1
			c-5.8,16.7-8.1,34.3-10.3,51.3c-1.6,12-3.2,24.3-6,36.2c-7.6,32.1-14.2,64.8-20.5,96.5c-1.3,6.5-2.6,13-3.9,19.6
			c-7.6,37.9-11.2,76-10.5,113.3c0.6,37.7,5.6,75.6,14.6,112.8c3.9,16.1,11,28.7,21.2,37.3c10.1,8.7,23.6,13.8,40.1,15.1
			c10.8,0.9,20.6,3,29.7,6.4c44.7,16.9,91.2,36.8,146.5,62.8c7.8,3.7,9.3,7.6,6.5,16.7c-8.4,26.6-14.7,49.1-18.2,72.8
			c-2.2,14.7-2.1,29.6-2,44.1c0.1,20,0.2,40.6-5.6,60.5c-3.7,12.6-4.6,25.7-5.6,38.5c-1.1,14.4-2.2,29.2-7.1,43.3
			c-4.7,13.2-10,26.4-15.1,39.2c-9.7,24.2-19.7,49.1-26,75.2c-1,4.1-2,8.2-2.9,12.3c-13,54.5-26.5,111-51.2,162.8
			c-3.6,7.6-3.5,16-3.4,24.1v0.3c0.2,17.9-0.8,38.8-9.6,58.3c-0.3,0.6-0.2,1.3,0.1,1.9c0.4,0.6,1,0.9,1.7,0.9H1778
			c0.6,0,1.2-0.3,1.5-0.7c0.4-0.5,0.5-1.1,0.4-1.6c-3.2-17.1,2.1-29.7,15.8-37.4c14.5-8.1,17.6-21.3,18.8-33.2
			c1-9.6,1.5-19.4,2-28.9c0.4-7.6,0.9-15.5,1.5-23.2c3.8-44.9,2.8-92.1-3-144.1c-0.5-4.9-1.7-9.8-2.8-14.5
			c-2.4-10-4.6-19.5-1.5-29.1c4.1-12.7,6.6-26,8.5-37.3l1-6c11.7-67.4,23.7-137.1,25.3-206.9c0.2-7.5,4-11.6,9.6-15.4
			c24.9-16.8,43.7-39.5,57.7-69.4c19.2-41.2,39.5-82.7,59.1-122.8c6.8-13.9,13.8-28.3,20.7-42.5c18.8-38.6,33.9-79.6,45.1-121.8
			c10.8-40.7,18.1-83.7,21.8-127.9c0.4-4.8,1.6-9.7,2.7-14.5c2.1-8.7,4.2-17.7,1.9-26.4c-3.9-14.7-2.6-29.6-1.3-43.9
			c0.7-7.5,1.4-15.2,1.3-22.9c-0.1-15.2,0.9-29.7,13.6-40.8c3.9-3.4,6-8.2,6.1-13.9c0-4.8-1.5-10.1-4.2-15
			c-5.4-9.7-4.9-19.2-3.6-31.6c1-9.2,2.8-18.6,4.5-27.6c3.1-16.1,6.3-32.8,5-49.5c-2.7-35.6-7.8-82.3-24.4-127.7
			c-13.3-36.4-32.9-64.2-60.1-85c-5.8-4.5-11.2-9.8-16.4-15c-4-3.9-8.1-8-12.4-11.7l-1.5-1.3c-17.8-15.2-36.2-30.9-61.9-35.2
			c-7.9-1.3-15.1-4.7-22.8-8.2c-8.2-3.8-16.7-7.7-26.1-9c-3.1-13.7-13.8-16.3-23.3-18.7c-5.6-1.4-10.9-2.7-14.5-6
			c-11.6-10.7-25.3-18-38.5-24.9c-10.6-5.6-21.5-11.3-31.1-18.8c-6.2-4.8-13.1-8.7-19.9-12.5c-12.2-6.9-24.8-14-33-26.6
			c-2-3.1-5.9-4.7-9.4-6.2c-0.3-0.1-0.6-0.3-1-0.4c-16.6-7-32.8-15.7-49.5-26.4c-0.5-0.3-1-0.6-1.4-1c-2.4-1.6-5.2-3.5-7.9-3.5
			c-0.3,0-0.6,0-0.8,0.1c-1.9,0.3-3.6,0.4-5.1,0.4c-3.9,0-6.6-0.9-8.4-2.7c-3.2-3.4-3-10.1-2.7-16.6c0-1,0.1-2,0.1-3.1
			c0.3-8.6,1-17.3,1.7-25.7l0.1-0.9c2.3-26.2,9.4-52.9,21.7-81.7c10.7-24.8,23.5-47.8,39.2-75.3c6-10.5,14.9-15.8,27.1-16.2
			c12.4-0.4,22-6,29.6-17.2c8-11.9,13.4-22.4,16.8-33.1c1.5-4.6,2.9-9.3,4.2-13.8c3.8-12.8,7.8-25.9,13.4-38
			c11.5-24.5,8.7-49.6,5.9-73.8c-0.2-1.6-0.4-3.3-0.5-4.9c-1.4-12.2-8.7-19.5-19.8-19.5c-0.7,0-1.5,0-2.3,0.1s-1.6,0.1-2.2,0.1
			c-1.4,0-3.1-0.2-3.7-0.9c-1-1.2-0.1-5,0.2-6.3c2.2-9.4,3.8-19.1,5.4-28.4c2.1-12.5,4.3-25.4,7.8-37.8c6.4-22.6,7-46.2,7.7-68.9
			c0.1-3.6,0.2-7.3,0.3-11c0.1-3.7,0.3-7.3,0.4-11c1.2-30.9,2.4-62.8-6.8-93.6c-0.8-2.6-1.8-5.2-2.7-7.7c-2.7-7.2-5.3-14-3.7-21.8
			c1-5.3-2.8-8.6-5.6-11l-0.4-0.3c-1.3-1.1-2.7-2.2-4.1-3.3c-6.2-4.8-11.6-9-10.2-18c0.2-1.5-0.3-3.2-1.4-4.5
			c-0.9-1.1-2.1-1.7-3.3-1.7c-0.5,0-0.9,0.1-1.4,0.3c-2.5,1-4.7,1.6-6.5,1.6c-5.9,0-7.1-5.9-8-13c-0.1-1.1-0.3-2.2-0.4-3.1
			c-3.4-18.3-11.5-32.4-24.7-43.1c-10.8-8.7-24.8-15.1-44.2-20c-11.9-3-21.1-8.2-27.9-15.7c-8.5-9.3-18.9-13.5-29.9-18l-2-0.8
			C1569.2,182.9,1553.2,180.2,1533.3,180.2L1533.3,180.2z"/>
	</g>
</g>
</svg>
